<svg width="411" height="127" viewBox="0 0 411 127" fill="none" xmlns="http://www.w3.org/2000/svg">
<path d="M51.4012 44.8911C31.5897 44.8911 3.23133 44.5894 2.54194 44.5396C-4.10052 44.0565 3.35847 43.2587 12.459 42.5897C12.2725 42.1061 12.1708 41.5979 12.1708 41.0725C12.1708 37.8811 15.8353 35.2939 20.3531 35.2939C21.9381 35.2939 23.413 35.6126 24.6675 36.1626C25.5462 32.8227 29.691 30.2931 34.675 30.2931C39.0826 30.2931 42.8318 32.2681 44.253 35.0324C45.1967 34.7636 46.2279 34.6142 47.3101 34.6142C51.3249 34.6142 54.6645 36.6588 55.3567 39.3547C55.871 39.1983 56.436 39.1113 57.0322 39.1113C59.3716 39.1113 61.2674 40.4507 61.2674 42.1027C61.2674 42.5785 61.1092 43.0282 60.8295 43.4277C66.2768 43.8786 70.3171 44.2952 70.3171 44.5396C70.3171 44.8029 62.1066 44.8911 51.4012 44.8911Z" fill="#FEEAD1"/>
<path d="M93.6034 51.4662C93.9376 50.9863 94.129 50.4463 94.129 49.8745C94.129 47.89 91.8504 46.2812 89.0401 46.2812C88.3261 46.2812 87.6456 46.3856 87.0288 46.5736C86.1964 43.3353 82.186 40.879 77.3614 40.879C76.0611 40.879 74.8246 41.0586 73.6883 41.3814C71.9839 38.0608 67.4783 35.6881 62.1858 35.6881C56.1976 35.6881 51.2181 38.7269 50.1639 42.7391C48.6569 42.0783 46.8827 41.6955 44.9808 41.6955C39.5516 41.6955 35.1493 44.8034 35.1493 48.6371C35.1493 49.268 35.2739 49.8786 35.4956 50.4596C24.5644 51.2633 15.6048 52.2218 23.5861 52.802C24.856 52.8942 105 53.7039 105 52.802C105 52.5083 100.148 52.0077 93.6034 51.4662Z" fill="#F4F4F4"/>
<path fill-rule="evenodd" clip-rule="evenodd" d="M208.205 114.082H410.264V126.958H208.205V114.082ZM310.326 13.5117C311.388 13.1008 312.138 12.0281 312.138 10.7971C312.138 9.56782 311.388 8.49335 310.326 8.05039V7.60922C310.796 7.26411 311.106 6.69486 311.106 6.06334C311.106 5.40157 310.796 4.83408 310.326 4.48718V1.96288C310.326 1.36338 309.827 0.88662 309.234 0.88662C308.642 0.88662 308.142 1.36338 308.142 1.96288V4.48718C307.671 4.83408 307.359 5.40157 307.359 6.06334C307.359 6.69486 307.671 7.26411 308.142 7.60922V8.05039C307.079 8.49335 306.331 9.56782 306.331 10.7971C306.331 12.0281 307.079 13.1008 308.142 13.5117V16.004C306.299 17.7082 304.177 19.5708 301.959 21.5294C301.71 21.7162 301.647 22.031 301.742 22.3157C301.865 22.6323 302.118 22.7907 302.428 22.7907H316.039C316.355 22.7907 316.602 22.6323 316.727 22.3157C316.822 22.031 316.76 21.7162 316.508 21.5294C314.291 19.5708 312.168 17.7082 310.326 16.004V13.5117ZM220.662 38.536L220.691 39.5465H221.568C222.159 39.5465 222.66 40.0517 222.66 40.6512C222.66 41.2507 222.159 41.7559 221.568 41.7559H220.787L221.067 47.0891H222.316C222.943 47.0891 223.408 47.5926 223.408 48.1938C223.408 48.7933 222.943 49.2968 222.316 49.2968H221.724C222.036 49.4551 222.255 49.834 222.255 50.245C222.255 50.8124 221.817 51.2856 221.254 51.3177L221.286 52.168L222.131 70.0285H212.419L213.263 52.168L213.294 51.3177C212.733 51.2856 212.296 50.8124 212.296 50.245C212.296 49.834 212.514 49.4854 212.825 49.2968H212.234C211.639 49.2968 211.138 48.7933 211.138 48.1938C211.138 47.5926 211.639 47.0891 212.234 47.0891H213.481L213.762 41.7559H212.98C212.389 41.7559 211.888 41.2507 211.888 40.6512C211.922 40.0517 212.389 39.5465 212.98 39.5465H213.855L213.887 38.536C213.949 37.5274 214.325 36.6432 214.887 35.9797C215.323 35.4745 215.886 35.0973 216.51 34.939V32.066C216.51 31.4665 216.853 30.9613 217.292 30.9613C217.696 30.9613 218.07 31.4665 218.07 32.066V34.939C218.664 35.0973 219.225 35.4745 219.661 35.9797C220.226 36.6432 220.602 37.5274 220.662 38.536ZM397.806 38.536L397.774 39.5465H396.9C396.306 39.5465 395.808 40.0517 395.808 40.6512C395.808 41.2507 396.306 41.7559 396.9 41.7559H397.68L397.4 47.0891H396.153C395.558 47.0891 395.057 47.5926 395.057 48.1938C395.057 48.7933 395.528 49.2968 396.153 49.2968H396.744C396.433 49.4551 396.214 49.834 396.214 50.245C396.214 50.8124 396.652 51.2856 397.213 51.3177L397.181 52.168L396.34 70.0285H406.048L405.205 52.168L405.175 51.3177C405.737 51.2856 406.171 50.8124 406.171 50.245C406.171 49.834 405.954 49.4854 405.642 49.2968H406.235C406.829 49.2968 407.329 48.7933 407.329 48.1938C407.329 47.5926 406.829 47.0891 406.235 47.0891H404.956L404.705 41.7559H405.485C406.08 41.7559 406.577 41.2507 406.577 40.6512C406.577 40.0517 406.08 39.5465 405.485 39.5465H404.61L404.55 38.536C404.518 37.5274 404.146 36.6432 403.582 35.9797C403.144 35.4745 402.581 35.0973 401.957 34.939V32.066C401.957 31.4665 401.614 30.9613 401.177 30.9613C400.773 30.9613 400.397 31.4665 400.397 32.066V34.939C399.804 35.0973 399.242 35.4745 398.804 35.9797C398.243 36.6432 397.869 37.5274 397.806 38.536ZM375.984 57.8499L375.951 58.6059H375.328C374.892 58.6059 374.516 58.9849 374.516 59.4261C374.516 59.869 374.892 60.2159 375.328 60.2159H375.889L375.704 64.1936H374.765C374.298 64.1936 373.952 64.5387 373.952 64.9799C373.952 65.4228 374.298 65.8 374.765 65.8H375.201C374.952 65.9281 374.797 66.2127 374.797 66.4955C374.797 66.9385 375.139 67.2836 375.545 67.3174L375.515 67.9169L374.892 81.138H382.071L381.448 67.9169L381.414 67.3174C381.852 67.2836 382.164 66.9385 382.164 66.4955C382.164 66.2127 382.009 65.9281 381.757 65.8H382.228C382.664 65.8 383.006 65.4228 383.006 64.9799C383.006 64.5387 382.664 64.1936 382.228 64.1936H381.291L381.104 60.2159H381.665C382.103 60.2159 382.445 59.869 382.445 59.4261C382.445 58.9849 382.103 58.6059 381.665 58.6059H381.009L380.979 57.8499C380.945 57.1241 380.665 56.4606 380.261 55.9571C379.917 55.6102 379.511 55.3256 379.073 55.1975V53.0841C379.073 52.643 378.793 52.2623 378.481 52.2623C378.167 52.2623 377.92 52.643 377.92 53.0841V55.1975C377.45 55.3256 377.045 55.6102 376.732 55.9571C376.297 56.4606 376.014 57.1241 375.984 57.8499ZM374.857 81.8335H374.109C373.671 81.8335 373.297 82.1786 373.297 82.6198C373.297 83.061 373.671 83.4435 374.109 83.4435H374.328C374.109 83.568 373.952 83.8526 373.952 84.1355C373.952 84.5766 374.298 84.9253 374.704 84.9573L374.141 96.6645H382.82L382.258 84.9573C382.697 84.9253 383.041 84.5766 383.041 84.1355C383.041 83.8526 382.882 83.568 382.633 83.4435H382.849C383.322 83.4435 383.662 83.061 383.662 82.6198C383.662 82.1786 383.322 81.8335 382.849 81.8335H382.103H374.857ZM374.109 97.5487H373.424C372.985 97.5487 372.641 97.9258 372.641 98.3687C372.641 98.8081 372.985 99.1888 373.424 99.1888H373.546C373.297 99.3134 373.14 99.5677 373.14 99.8826C373.14 100.326 373.516 100.671 373.952 100.671L373.393 112.474H383.57L383.006 100.671C383.475 100.671 383.817 100.326 383.817 99.8826C383.817 99.5677 383.662 99.3134 383.413 99.1888H383.539C383.974 99.1888 384.318 98.8081 384.318 98.3687C384.318 97.9258 383.974 97.5487 383.539 97.5487H382.849H374.109ZM396.276 70.9749H395.276C394.653 70.9749 394.184 71.4819 394.184 72.0832C394.184 72.6809 394.653 73.1541 395.276 73.1541H395.59C395.248 73.3444 395.029 73.7216 395.029 74.1023C395.029 74.7 395.494 75.175 396.087 75.2052L395.341 91.0786H407.048L406.297 75.2052C406.889 75.175 407.329 74.7 407.329 74.1023C407.329 73.7216 407.108 73.3444 406.798 73.1541H407.108C407.701 73.1541 408.202 72.6809 408.202 72.0832C408.202 71.4819 407.701 70.9749 407.108 70.9749H406.11H396.276ZM395.276 92.2776H394.371C393.748 92.2776 393.279 92.7829 393.279 93.3824C393.279 93.9819 393.748 94.4533 394.371 94.4533H394.529C394.184 94.6436 393.965 95.0226 393.965 95.4015C393.965 96.0312 394.464 96.5062 395.057 96.5062L394.309 112.474H408.077L407.295 96.5062H407.329C407.92 96.5062 408.422 96.0312 408.422 95.4015C408.422 95.0226 408.202 94.6436 407.86 94.4533H408.015C408.608 94.4533 409.107 93.9819 409.107 93.3824C409.107 92.7829 408.608 92.2776 408.015 92.2776H407.108H395.276ZM242.486 57.8499L242.516 58.6059H243.141C243.578 58.6059 243.952 58.9849 243.952 59.4261C243.952 59.869 243.578 60.2159 243.141 60.2159H242.578L242.765 64.1936H243.702C244.171 64.1936 244.513 64.5387 244.513 64.9799C244.513 65.4228 244.171 65.8 243.702 65.8H243.264C243.515 65.9281 243.672 66.2127 243.672 66.4955C243.672 66.9385 243.328 67.2836 242.922 67.3174L242.956 67.9169L243.578 81.138H236.398L237.023 67.9169L237.053 67.3174C236.617 67.2836 236.303 66.9385 236.303 66.4955C236.303 66.2127 236.46 65.9281 236.709 65.8H236.241C235.804 65.8 235.461 65.4228 235.461 64.9799C235.461 64.5387 235.804 64.1936 236.241 64.1936H237.176L237.367 60.2159H236.802C236.366 60.2159 236.022 59.869 236.022 59.4261C236.022 58.9849 236.366 58.6059 236.802 58.6059H237.458L237.49 57.8499C237.52 57.1241 237.802 56.4606 238.208 55.9571C238.55 55.6102 238.958 55.3256 239.394 55.1975V53.0841C239.394 52.643 239.674 52.2623 239.988 52.2623C240.299 52.2623 240.549 52.643 240.549 53.0841V55.1975C241.018 55.3256 241.424 55.6102 241.735 55.9571C242.172 56.4606 242.453 57.1241 242.486 57.8499ZM243.608 81.8335H244.358C244.796 81.8335 245.171 82.1786 245.171 82.6198C245.171 83.061 244.796 83.4435 244.358 83.4435H244.109C244.358 83.568 244.513 83.8526 244.513 84.1355C244.513 84.5766 244.171 84.9253 243.767 84.9573L244.326 96.6645H235.648L236.211 84.9573C235.772 84.9253 235.43 84.5766 235.43 84.1355C235.43 83.8526 235.587 83.568 235.835 83.4435H235.617C235.151 83.4435 234.803 83.061 234.803 82.6198C234.803 82.1786 235.151 81.8335 235.617 81.8335H236.366H243.608ZM244.358 97.5487H245.044C245.48 97.5487 245.826 97.9258 245.826 98.3687C245.826 98.8081 245.48 99.1888 245.044 99.1888H244.921C245.171 99.3134 245.325 99.5677 245.325 99.8826C245.325 100.326 244.951 100.671 244.513 100.671L245.044 112.474H234.899L235.461 100.671H235.43C234.992 100.671 234.65 100.326 234.65 99.8826C234.65 99.5677 234.803 99.3134 235.056 99.1888H234.93C234.493 99.1888 234.149 98.8081 234.149 98.3687C234.149 97.9258 234.493 97.5487 234.93 97.5487H235.617H244.358ZM222.193 70.9749H223.19C223.816 70.9749 224.283 71.4819 224.283 72.0832C224.283 72.6809 223.816 73.1541 223.19 73.1541H222.879C223.223 73.3444 223.442 73.7216 223.442 74.1023C223.442 74.7 222.971 75.175 222.378 75.2052L223.128 91.0786H211.422L212.169 75.2052C211.578 75.175 211.108 74.7 211.108 74.1023C211.108 73.7216 211.327 73.3444 211.669 73.1541H211.357C210.734 73.1541 210.265 72.6809 210.265 72.0832C210.265 71.4819 210.734 70.9749 211.357 70.9749H212.357H222.193ZM223.19 92.2776H224.096C224.721 92.2776 225.188 92.7829 225.188 93.3824C225.188 93.9819 224.721 94.4533 224.096 94.4533H223.941C224.283 94.6436 224.502 95.0226 224.502 95.4015C224.502 96.0312 224.003 96.5062 223.408 96.5062L224.158 112.474H210.392L211.172 96.5062H211.138C210.546 96.5062 210.046 96.0312 210.046 95.4015C210.046 95.0226 210.265 94.6436 210.611 94.4533H210.452C209.829 94.4533 209.36 93.9819 209.36 93.3824C209.36 92.7829 209.829 92.2776 210.452 92.2776H211.357H223.19ZM271.864 72.8392H274.984V68.4204C274.984 67.6341 274.33 66.9687 273.548 66.9687H273.301C272.488 66.9687 271.864 67.6341 271.864 68.4204V72.8392ZM282.226 72.8392H285.351V68.4204C285.351 67.6341 284.696 66.9687 283.915 66.9687H283.666C282.884 66.9687 282.226 67.6341 282.226 68.4204V72.8392ZM276.484 72.8392H280.73V68.4204C280.73 67.6341 279.824 66.9687 278.763 66.9687H278.421C277.359 66.9687 276.484 67.6341 276.484 68.4204V72.8392ZM346.542 72.8392H343.389V68.4204C343.389 67.6341 344.044 66.9687 344.855 66.9687H345.074C345.885 66.9687 346.542 67.6341 346.542 68.4204V72.8392ZM336.147 72.8392H333.025V68.4204C333.025 67.6341 333.679 66.9687 334.461 66.9687H334.708C335.521 66.9687 336.147 67.6341 336.147 68.4204V72.8392ZM341.891 72.8392H337.675V68.4204C337.675 67.6341 338.55 66.9687 339.61 66.9687H339.954C341.016 66.9687 341.891 67.6341 341.891 68.4204V72.8392ZM259.313 112.474V104.773C259.313 102.092 261.248 100.859 262.372 99.8186C263.498 100.859 265.433 102.092 265.433 104.773V112.474H268.399V73.8817H256.72V112.474H259.313ZM283.728 95.7804H273.457V86.0621C273.457 83.3776 276.673 82.1164 278.575 81.1059C280.482 82.1164 283.728 83.3776 283.728 86.0621V95.7804ZM265.433 95.7804H259.313V86.0621C259.313 83.3776 261.248 82.1164 262.372 81.1059C263.498 82.1164 265.433 83.3776 265.433 86.0621V95.7804ZM273.457 112.474H270.239V73.8817H286.63V66.0224H278.61H270.332H270.272C269.678 66.0224 269.18 65.5492 269.18 64.9497C269.18 64.3199 269.678 63.8449 270.272 63.8449H270.366C270.863 59.0169 274.143 56.9978 277.64 54.2831V51.1273C277.64 50.5901 278.077 50.1809 278.61 50.1809C279.107 50.1809 279.543 50.5901 279.543 51.1273V54.2831C282.791 56.7434 285.788 58.67 286.63 62.678C286.787 63.3717 287.348 63.8449 288.066 63.8449H330.339C330.994 63.8449 331.588 63.3717 331.744 62.678C332.585 58.67 335.584 56.7434 338.831 54.2831V51.1273C338.831 50.5901 339.266 50.1809 339.769 50.1809C340.297 50.1809 340.704 50.5901 340.704 51.1273L340.734 54.2831C344.262 56.9978 347.509 59.0169 348.01 63.8449H348.103C348.698 63.8449 349.195 64.3199 349.195 64.9497C349.195 65.5492 348.698 66.0224 348.103 66.0224H348.04H339.769H331.837V73.8817H348.227V112.474H345.01V104.773C345.01 102.092 341.764 100.859 339.862 99.8186C337.989 100.859 334.741 102.092 334.741 104.773V112.474H327.967V68.9576C327.967 68.3581 327.467 67.8831 326.875 67.8831H291.594C291.002 67.8831 290.502 68.3581 290.502 68.9576V112.474H283.728V104.773C283.728 102.092 280.482 100.859 278.575 99.8186C276.673 100.859 273.457 102.092 273.457 104.773V112.474ZM292.688 112.474H296.529V91.5501C296.529 75.8368 321.942 75.8368 321.942 91.5501V112.474H325.781C325.781 98.3349 325.781 84.1995 325.781 70.0623H292.688C292.688 84.1995 292.688 98.3349 292.688 112.474ZM334.741 95.7804H345.01V86.0621C345.01 83.3776 341.764 82.1164 339.862 81.1059C337.989 82.1164 334.741 83.3776 334.741 86.0621V95.7804ZM353.036 95.7804H359.156V86.0621C359.156 83.3776 357.219 82.1164 356.095 81.1059C354.973 82.1164 353.036 83.3776 353.036 86.0621V95.7804ZM353.036 112.474H350.07V73.8817H361.745V112.474H359.156V104.773C359.156 102.092 357.219 100.859 356.095 99.8186C354.973 100.859 353.036 102.092 353.036 104.773V112.474ZM298.088 24.9983C290.97 31.5323 284.225 38.9469 284.225 46.4274C284.225 49.5814 285.039 52.5789 286.475 55.2615C287.129 56.4605 288.286 57.1561 289.629 57.1561H328.842C330.184 57.1561 331.338 56.4605 331.992 55.2615C333.43 52.5789 334.242 49.5814 334.242 46.4274C334.242 38.9469 327.497 31.5323 320.379 24.9983C319.693 24.3383 318.883 24.0519 317.942 24.0519H300.523C299.588 24.0519 298.775 24.3383 298.088 24.9983ZM287.66 59.6787V61.8578C287.66 62.267 287.972 62.6121 288.38 62.6121L330.087 62.5837C330.496 62.5837 330.807 62.267 330.807 61.8578V59.6787C330.807 59.2677 330.496 58.9226 330.087 58.9226H288.38C287.972 58.9226 287.66 59.2677 287.66 59.6787ZM279.481 116.795C278.827 116.795 278.264 117.332 278.264 118.028C278.264 118.69 278.827 119.257 279.481 119.257H338.986C339.642 119.257 340.205 118.69 340.205 118.028C340.205 117.332 339.642 116.795 338.986 116.795H279.481ZM279.481 121.781C278.827 121.781 278.264 122.347 278.264 123.012C278.264 123.708 278.827 124.274 279.481 124.274H338.986C339.642 124.274 340.205 123.708 340.205 123.012C340.205 122.347 339.642 121.781 338.986 121.781H279.481Z" fill="url(#paint0_linear_3631_10050)"/>
<path fill-rule="evenodd" clip-rule="evenodd" d="M102.283 69.2025C102.309 69.5716 102.697 69.6378 103.006 69.4659C103.11 69.4004 103.226 69.4138 103.355 69.4265C103.459 69.4399 103.368 69.2687 103.355 69.2419C103.316 69.163 103.277 69.07 103.238 68.9911C103.2 68.8854 103.136 68.7924 103.045 68.7529C102.942 68.7008 102.8 68.6875 102.684 68.6875C102.529 68.6741 102.374 68.6473 102.297 68.7135C102.232 68.7924 102.283 69.163 102.283 69.2025ZM91.8399 116.634H92.4979V114.852C92.4979 114.588 92.7037 114.364 92.9627 114.364H94.9376C94.8989 112.146 96.1253 96.7399 96.3186 94.3904C96.2157 94.3636 96.1253 94.3108 96.0611 94.2185C95.9706 94.0734 96.1005 93.7169 96.0224 93.571C95.9443 93.44 95.751 93.3604 95.7116 93.2942C95.5701 91.7626 96.0093 90.8517 95.9837 89.4793C95.9837 89.2412 95.8152 89.1229 95.6095 88.9249C95.584 88.555 95.6606 88.4627 95.6474 88.3444C95.5701 88.3176 95.0674 88.2908 95.0404 88.2648C95.028 87.6307 95.144 86.3112 95.1951 85.8357C95.3505 84.3837 95.5307 82.7598 95.5956 81.2945C94.9886 81.0042 94.2664 80.8985 93.8272 80.7132C92.7168 80.2384 92.0967 79.9876 90.3406 80.1982C89.1026 80.3441 88.16 80.3969 87.8244 80.0271C87.3977 79.5515 86.1968 78.3905 85.7839 76.6997C85.306 76.7801 83.9374 76.7272 83.6799 76.7272C83.202 76.7131 82.9948 76.6744 82.6592 76.6476C82.0004 76.6081 81.3423 76.5292 80.8769 76.3439C80.839 76.3305 80.7098 76.2785 80.6318 76.239C80.5814 76.2122 80.5544 76.1854 80.5296 76.1326C80.5158 76.1192 80.5158 76.1066 80.5034 76.0932C80.4647 76.0537 80.4136 76.0537 80.3232 76.0009C80.2451 75.9607 80.1554 75.8558 80.1554 75.7895C80.1423 75.7895 80.1422 75.7895 80.1284 75.7761C80.0773 75.7501 80.0248 75.7106 80.0131 75.6578C80 75.6183 80 75.5782 80 75.5387C80.0131 75.5119 80.0394 75.4725 80.0642 75.4464C80.116 75.3936 80.2451 75.3668 80.3356 75.3534C80.3356 75.2484 80.3998 75.1956 80.491 75.1688C80.5297 75.1562 80.5814 75.1428 80.6194 75.1428C80.6449 75.1428 80.6704 75.1294 80.6967 75.1294C80.7492 75.1167 80.9163 75.1167 81.0848 75.1026C81.2781 75.1026 81.4978 75.1026 81.5751 75.1167C81.6393 75.1167 81.7939 75.1294 81.9238 75.1294C81.9493 75.1294 81.9756 75.1294 82.0004 75.1167C81.988 75.1167 81.9756 75.1167 81.9756 75.1026C81.9099 75.0237 81.8333 74.9448 81.8202 74.8525C81.8202 74.8391 81.8078 74.8391 81.8078 74.8257C81.8078 74.8257 81.8078 74.8131 81.8078 74.799C81.8333 74.7074 81.8596 74.6806 81.9625 74.6546C81.9625 74.6546 81.988 74.6412 82.0916 74.6412C82.3243 74.6546 82.5695 74.6278 82.8146 74.6144C83.3304 74.5884 83.8476 74.5489 84.3116 74.7074C84.4663 74.7595 84.5962 74.8525 84.7246 74.9448C84.8289 75.0111 84.9186 75.0766 85.0091 75.1167C85.3191 75.2619 85.4869 75.2618 85.7707 75.2618C85.7977 75.2484 85.8357 75.2351 85.8875 75.2351C87.0102 75.3273 91.7611 75.0505 91.9041 74.9582C92.1485 74.8131 92.3944 74.7856 92.6001 74.7074C93.1173 74.5095 93.5689 74.377 94.0723 74.3375C94.486 74.3107 94.8989 74.2579 95.2987 74.0994C95.7379 73.9416 97.7908 73.7035 98.5787 73.7303C98.7845 73.7303 99.417 73.6774 99.7796 73.5978C99.7657 73.0567 99.9211 71.6442 99.908 71.5914C99.8949 71.4202 100.295 68.6346 100.424 68.3712C100.619 67.9872 100.812 67.7103 101.083 67.5518C101.354 67.3799 101.676 67.3404 102.116 67.4067C102.128 67.4067 102.154 67.4067 102.154 67.4193C102.206 67.4193 102.271 67.4193 102.348 67.4067C102.619 67.3799 102.994 67.3404 103.484 67.816C103.652 67.9745 103.768 68.1591 103.872 68.4233C103.975 68.6741 104.039 69.0038 104.091 69.4793C104.182 70.2317 104.169 70.9841 104.155 71.7365C104.143 72.3178 104.129 72.899 104.169 73.4795C104.414 73.4929 104.673 73.5063 104.943 73.5323C105.189 73.5584 105.434 73.5717 105.666 73.5851C106.143 73.6112 106.543 73.638 106.931 73.7035C107.332 73.7697 107.719 73.8754 108.196 74.0466C108.404 74.1136 108.726 74.2319 109.049 74.3242C109.281 74.3904 109.501 74.4432 109.656 74.4559C110.275 74.5355 110.74 74.5883 111.101 74.6278C111.476 74.668 111.76 74.694 112.031 74.694C112.574 74.694 113.245 74.6546 113.942 74.6144C114.665 74.5616 115.439 74.4827 116.15 74.4038C116.472 74.3643 116.795 74.3108 117.092 74.2579C117.608 74.179 118.073 74.0994 118.434 74.1135C118.628 74.1262 118.951 73.9282 119.299 73.7169C119.623 73.5182 119.946 73.3209 120.216 73.2681C120.346 73.242 120.449 73.2153 120.527 73.2019C120.694 73.1624 120.81 73.1222 121.159 73.0835C121.172 73.0835 121.352 73.0568 121.546 73.0173C121.727 72.9771 121.92 72.9511 122.036 72.925C122.101 72.9116 122.167 72.9377 122.205 73.0039C122.218 73.0307 122.231 73.0567 122.231 73.0969C122.231 73.1222 122.231 73.149 122.205 73.1892C122.179 73.2421 122.114 73.3209 122.05 73.3998C122.114 73.3872 122.167 73.3872 122.243 73.3872C122.488 73.3738 122.798 73.3477 123.069 73.3477C123.393 73.3604 123.664 73.3872 123.754 73.5063C123.818 73.5182 123.883 73.5323 123.921 73.5584C123.961 73.5852 123.986 73.6112 124.012 73.6514C124.025 73.6908 124.039 73.7303 124.039 73.7697C124.025 73.8092 124.025 73.8359 124.012 73.8754C124.012 73.8754 124.012 73.8754 124.012 73.8888C124.025 73.9148 124.039 73.9543 124.039 74.0071C124.039 74.0466 124.039 74.0994 124.012 74.1388C123.986 74.1924 123.961 74.2453 123.896 74.2721C123.715 74.4038 123.521 74.377 123.496 74.4298C123.47 74.47 123.535 74.6144 123.314 74.694C123.069 74.7729 122.528 74.9307 122.334 75.0111C121.92 75.209 120.566 75.6049 120.139 75.631C119.855 75.631 119.417 75.6183 119.158 75.6183C118.925 75.6183 118.887 75.5916 118.641 75.605C118.461 75.631 118.266 75.7761 118.202 75.948C118.099 76.2122 118.087 76.4764 117.944 76.9773C117.893 77.1626 117.84 77.3338 117.789 77.4923C117.713 77.717 117.635 77.915 117.544 78.0996C117.286 78.6674 116.988 79.0239 116.73 79.2352C116.537 79.3803 116.369 79.4592 116.227 79.4734C114.471 79.6572 108.738 81.0444 107.641 81.2148C107.681 82.0997 107.757 83.5517 107.835 85.2023C108.042 88.8453 108.287 93.4259 108.235 94.8526C108.223 94.9843 108.171 95.0758 108.107 95.1428C108.016 95.2485 107.873 95.288 107.823 95.288C107.757 95.288 107.873 98.2313 107.887 99.2747V99.6044C107.887 99.6572 107.9 99.7369 107.912 99.8292C107.951 100.107 108.003 100.503 107.926 100.766C107.887 100.951 107.783 101.07 107.616 101.097C107.526 101.149 107.41 101.215 107.293 101.268C107.551 103.552 107.977 112.252 108.042 114.364H109.656C109.913 114.364 110.133 114.588 110.133 114.852V116.634H110.779C111.14 116.634 111.437 116.925 111.463 117.281L112.044 126.232C112.057 126.43 111.992 126.602 111.863 126.747C111.733 126.892 111.566 126.958 111.373 126.958H91.2577C91.0636 126.958 90.8966 126.892 90.7543 126.747C90.6252 126.602 90.561 126.43 90.5734 126.232L91.1672 117.281C91.1935 116.925 91.4773 116.634 91.8399 116.634ZM110.766 117.175H107.28V126.43H111.296C111.333 126.43 111.36 126.416 111.398 126.39C111.424 126.363 111.437 126.324 111.424 126.285L110.907 117.308C110.895 117.228 110.844 117.175 110.766 117.175ZM109.591 116.634V114.984C109.591 114.905 109.526 114.852 109.448 114.852H106.248V116.634H109.591ZM96.8614 114.364H97.739C97.9068 109.77 98.2169 105.254 98.3584 100.675C98.4102 99.0901 98.5394 97.5317 98.5262 95.9741C98.5262 95.6176 98.036 95.6444 97.9842 95.8818C97.7259 97.0302 97.5194 101.347 97.5318 101.373C97.5712 102.615 97.0292 112.37 96.8614 114.364ZM98.7072 114.364H99.6497C99.8562 110.034 100.192 103.71 100.076 98.7865C100.037 97.4796 100.063 96.6074 99.7271 96.4891C99.5469 96.4496 99.4819 96.6216 99.4564 97.0301C99.2237 97.8227 99.3003 101.585 99.1464 105.361C99.0048 109.057 98.759 112.78 98.7072 114.364ZM100.579 114.364H101.47C101.625 109.347 101.832 104.331 101.973 99.3536C101.987 98.9971 101.922 98.2581 101.806 97.8093C101.69 97.3472 101.174 97.0703 101.121 97.915C100.928 101.638 100.825 105.254 100.657 108.925C100.643 109.413 100.592 112.45 100.579 114.364ZM102.322 114.364H103.601C103.522 109.546 104.065 103.34 103.511 98.4427C103.459 98.0333 102.929 97.8756 102.825 98.1785C102.619 98.7865 102.271 110.812 102.322 114.364ZM104.517 114.364H105.408C105.485 112.898 105.576 109.413 105.615 106.126C105.64 102.76 105.615 99.6044 105.447 99.0634C105.356 98.7731 105.046 98.6674 104.93 98.9443C104.388 100.225 104.465 111.367 104.517 114.364ZM106.234 114.364H107.332C107.435 110.561 106.79 105.228 106.712 101.242C106.699 100.317 106.415 100.358 106.376 100.45C106.324 100.568 106.35 100.832 106.338 101.149C106.311 102.02 106.324 103.38 106.324 103.802C106.324 107.209 106.17 111.037 106.234 114.364ZM97.1328 74.4432C97.1328 74.4432 96.8738 74.4559 97.0029 74.7335C97.0423 74.8258 97.197 74.9582 97.3385 75.1294C97.9068 75.8029 98.4875 76.1326 99.2631 76.5419C99.5337 76.6878 100.088 76.8984 100.541 76.9378C100.825 76.9512 101.095 76.8716 101.148 76.7272C100.476 76.7666 99.4688 76.4891 99.1587 76.3573C99.0172 76.2911 98.875 76.1594 98.759 76.0671C97.9316 75.407 97.6872 74.601 97.1328 74.4432ZM103.665 74.0071C103.678 73.9543 103.652 73.9148 103.601 73.9014C103.562 73.8888 103.511 73.9148 103.497 73.9543C103.472 74.0466 103.459 74.1522 103.432 74.2453C103.33 74.6546 103.226 75.0892 102.684 75.7627C102.658 75.8029 102.658 75.8557 102.697 75.8818C102.735 75.9078 102.787 75.9079 102.814 75.8684C103.381 75.1688 103.497 74.7074 103.601 74.284C103.613 74.1924 103.64 74.0994 103.665 74.0071ZM103.368 78.2975C103.33 78.2581 103.277 78.2715 103.238 78.2975C103.214 78.3377 103.214 78.3905 103.252 78.43C103.381 78.5349 103.536 78.6279 103.678 78.6808C103.859 78.7463 104.027 78.7865 104.169 78.7865C104.155 79.0105 104.155 79.2352 104.143 79.4592C103.82 79.4064 103.161 79.2479 102.167 78.4694C102.297 78.43 102.387 78.4032 102.451 78.3772C102.503 78.3638 102.489 78.3377 102.464 78.3377C102.451 78.3236 101.896 78.3377 101.174 78.3377C100.141 78.3377 98.81 78.3109 98.6561 78.2186C98.6422 78.2186 97.9718 78.1531 97.6099 77.9812C97.0153 77.7036 96.706 77.5853 96.0866 77.2549L96.0093 77.2154C95.584 76.9773 93.0137 75.7106 92.3301 75.1688C92.3031 75.1562 92.2907 75.1167 92.3031 75.0892C92.3031 75.0632 92.3163 75.0371 92.3425 75.0237C92.9109 74.7595 93.5689 74.5883 93.8914 74.5883C94.305 74.601 94.8858 74.5615 95.403 74.3643C96.0472 74.0994 96.8993 74.0071 97.5194 73.9543C98.3205 73.8888 99.417 73.8888 100.101 73.7958C100.592 73.7303 101.444 73.466 101.612 73.4527C101.612 73.4527 101.819 73.2547 102.077 72.9913C102.091 72.9771 102.116 72.9771 102.142 72.9913C102.154 73.0039 102.154 73.0307 102.142 73.0441C102.103 73.1222 102.038 73.2153 101.961 73.2941C101.948 73.3075 101.896 73.3738 101.896 73.4266C101.909 73.4527 101.922 73.4795 101.948 73.4661C102 73.4661 102.051 73.4795 102.091 73.4661C102.142 73.4661 102.154 73.4266 102.167 73.3738C102.181 73.3344 102.259 73.1096 102.271 73.0835C102.283 73.0701 102.413 72.7926 102.478 72.5954C102.723 72.3304 102.955 72.0796 103.02 71.9479C103.045 71.9084 103.045 71.8296 103.033 71.8296C102.994 71.8028 102.955 71.8027 102.916 71.8027C102.814 71.8295 102.723 71.9218 102.619 71.9345C102.387 71.9747 102.297 71.895 102.283 71.8556C102.142 71.5787 102.012 71.6837 101.768 71.671C101.16 71.6316 101.148 70.9975 101.973 70.9052C102.077 70.8918 102.167 70.8524 102.181 70.839C102.206 70.813 102.206 70.7601 102.193 70.7333C102.167 70.6939 102.116 70.6671 102.064 70.6671C102 70.6544 101.973 70.5748 102.128 70.5882C102.232 70.5882 102.297 70.641 102.361 70.6939C102.478 70.7735 102.489 70.8129 102.593 70.9052C102.671 70.9714 102.684 70.9052 102.671 70.8256C102.658 70.7601 102.619 70.6671 102.568 70.5882C102.517 70.5093 102.439 70.4565 102.387 70.4036C102.309 70.3634 102.219 70.3247 102.154 70.298C102.103 70.2712 102.103 70.1789 102.116 70.1528C102.128 70.0732 102.142 70.1 102.206 70.1C102.387 70.1 102.232 69.8492 102.128 69.783C102.012 69.7175 101.87 69.6907 101.87 69.585C101.857 69.4265 101.87 69.2151 101.87 69.1362C101.87 69.0305 101.884 68.9375 101.884 68.846C101.871 68.7403 101.845 68.6473 101.716 68.6346C101.56 68.6078 101.212 68.5423 101.07 68.6741C101.044 68.7008 101.018 68.7269 100.941 68.7009C100.902 68.6875 100.889 68.6346 100.889 68.5423C100.902 68.3838 100.979 68.2647 101.083 68.1851C101.225 68.0534 101.535 67.8956 101.728 67.816C101.754 67.8026 101.819 67.7505 101.792 67.723C101.78 67.7103 101.768 67.7103 101.754 67.7103C101.69 67.7103 101.586 67.7505 101.509 67.7766C101.264 67.8688 101.018 68.0534 100.837 68.1717C100.825 68.1717 100.825 68.1851 100.812 68.1851C100.786 68.1851 100.774 68.1851 100.759 68.1717C100.748 68.1591 100.748 68.133 100.759 68.1196C100.876 67.9351 101.018 67.79 101.174 67.6977C101.393 67.5518 101.69 67.5124 102.077 67.5786C102.103 67.5786 102.116 67.5786 102.142 67.5912C102.206 67.6046 102.283 67.5912 102.374 67.5786C102.593 67.5518 102.929 67.525 103.368 67.9477C103.511 68.0802 103.627 68.2387 103.716 68.4761C103.807 68.7269 103.872 69.0439 103.923 69.492C104.013 70.2451 104.002 70.9841 103.988 71.7365C103.975 72.3438 103.962 72.9645 104.013 73.5717C104.013 73.6246 104.053 73.6514 104.104 73.6514C104.129 73.6514 104.155 73.6514 104.169 73.6514C104.027 74.0994 104.194 76.6349 104.182 78.2052C104.182 78.3504 104.182 78.4828 104.169 78.6146C104.053 78.6146 103.897 78.5885 103.743 78.5223C103.613 78.4694 103.472 78.3905 103.368 78.2975ZM101.961 78.5223C101.909 78.5349 101.845 78.5483 101.78 78.5617C102.077 78.9182 102.489 79.3007 102.903 79.6043C103.33 79.9221 103.768 80.1461 104.091 80.1588C104.104 79.9742 104.117 79.803 104.129 79.6311C103.794 79.5783 103.059 79.4198 101.961 78.5223ZM102.58 79.7629C102.774 80.001 103.045 80.2258 103.33 80.423C103.601 80.6083 103.872 80.7668 104.039 80.8457C104.053 80.6738 104.065 80.5026 104.078 80.3307C103.73 80.3047 103.265 80.0807 102.8 79.7495C102.348 79.4198 101.909 78.9978 101.6 78.6019C101.083 78.7202 100.515 78.8393 100.373 78.852C100.218 78.8787 99.908 78.9576 99.5469 78.9576C99.1208 78.971 98.6561 78.9048 98.6561 79.0499C98.6035 79.2218 100.669 80.9774 100.308 81.1754C100.206 81.2282 99.6891 80.9648 99.3397 80.6738C99.2105 80.5681 99.0172 80.3441 98.8231 80.0926C98.7589 80.0144 98.6685 79.9876 98.5787 80.0271C98.4875 80.0531 98.4365 80.1461 98.4365 80.2384C98.4489 80.3307 98.4489 80.4364 98.4628 80.5681C98.4744 80.8323 98.5262 81.5981 98.81 82.2977C99.1208 83.0501 100.567 85.9547 100.967 86.5352C102 88.0006 103.406 89.4005 103.42 89.466L103.395 89.5188C103.277 89.5322 102.878 89.1229 102.787 89.0834C102.774 89.07 102.026 88.3704 101.948 88.3042C101.07 87.5786 99.7409 85.8617 99.3915 84.7528C99.1981 84.4366 98.6035 82.5351 98.4102 82.5485C98.3329 82.7866 98.5007 84.9776 98.5649 85.1622C98.6422 85.9146 98.6947 85.8223 98.8625 86.4295C98.9267 86.6543 100.167 89.6245 100.283 89.809C100.399 89.9809 101.238 91.5914 102 92.9117C102.619 93.9811 103.2 94.8258 103.175 94.9315C100.915 93.545 99.5075 89.585 99.1464 88.6346C98.8494 87.8294 98.5787 87.3278 98.384 86.4429C98.179 85.5186 98.0746 84.7402 98.0746 83.7891C98.0615 82.3371 97.9718 80.4103 98.036 79.0894C97.9973 78.7991 97.3903 78.6674 97.197 79.0767C97.1189 80.7534 97.0153 82.4964 96.7716 84.159C96.7191 84.5154 96.436 86.3507 96.436 86.3908C96.447 86.8255 96.2675 87.5384 96.2281 87.7892C96.3062 87.8153 96.4864 87.8555 96.5127 87.8555C96.7315 87.9083 96.8876 87.9478 97.1058 88.0274C97.2232 88.0668 97.6872 88.1986 97.7522 88.2782C97.8295 88.3965 97.8813 88.2782 97.8944 88.5156C97.9207 88.8192 97.9455 88.9911 97.8813 89.1363C97.7135 89.4927 97.2612 89.5322 96.8738 89.7964C96.8351 89.8358 96.6936 89.9541 96.6031 90.0204C96.5776 90.4297 96.6287 93.004 96.6418 94.0072C97.7646 94.4165 101.652 96.5285 102.787 97.0175C103.381 97.2809 104.065 97.374 104.465 97.598C104.465 97.5846 104.465 97.5846 104.465 97.5712C104.414 97.1753 104.453 95.4993 104.401 95.0498C104.388 94.9315 104.349 94.8913 104.285 94.8124C104.194 94.6933 104.078 94.5222 103.948 94.4165C103.794 94.258 103.82 94.2319 103.807 93.9938C103.794 93.862 103.846 93.6507 103.859 93.4401C103.859 93.4125 103.859 93.3865 103.872 93.347C103.885 93.1223 103.897 92.9377 103.897 92.9243C104.182 91.4991 103.678 89.4399 103.678 87.9217C103.678 86.667 103.859 85.3073 103.859 84.3703C103.859 83.2086 103.948 82.0997 104.027 81.0176C103.846 80.9514 103.536 80.7795 103.226 80.5555C102.942 80.3575 102.658 80.1194 102.451 79.8812C102.413 79.8425 102.426 79.7896 102.451 79.7629C102.489 79.7234 102.542 79.7368 102.58 79.7629ZM107.796 100.45C107.796 100.252 107.77 100.027 107.745 99.8552C107.719 99.7495 107.719 99.6572 107.719 99.6044V99.2747C107.706 98.337 107.706 95.9086 107.77 95.2745C107.745 95.2611 107.732 95.2485 107.719 95.2217C107.706 95.1034 107.603 94.9314 107.357 94.9448C107.241 94.9448 107.009 95.09 106.906 95.0237C106.79 94.9582 106.79 94.9054 106.66 94.7997C106.48 94.6278 106.286 94.4165 106.002 94.3904C105.796 94.3502 105.706 94.3502 105.472 94.3502C105.382 94.3502 104.891 94.5355 104.749 94.6405C104.723 94.6539 104.711 94.6806 104.711 94.7074C104.711 94.9843 104.698 96.5814 104.607 97.3077C104.685 97.2809 104.788 97.2549 104.891 97.2155C105.524 96.9781 106.286 96.5285 106.415 96.4497C106.531 96.3834 107.085 96.0537 107.215 96.0269C107.667 95.9347 107.551 96.4095 107.344 96.4363C107.319 96.4363 107.293 96.4363 107.28 96.4229C107.099 96.3708 107.19 96.2911 106.931 96.3834C106.815 96.4229 106.402 96.6744 106.027 96.8724C105.898 96.9379 105.498 97.1224 105.137 97.2683C104.84 97.3866 104.595 97.4655 104.582 97.5191C104.568 97.5452 104.582 97.5712 104.582 97.5846C104.736 97.8093 105.098 97.8882 105.331 98.0073C105.912 98.2581 106.622 98.5885 106.802 99.0499C106.828 99.0901 106.841 99.1422 106.866 99.1951C106.893 99.2353 106.918 99.2881 106.931 99.3141C106.996 99.5121 107.085 99.4987 107.164 99.8157C107.228 100.107 107.241 100.159 107.46 100.317C107.641 100.436 107.668 100.384 107.719 100.397C107.757 100.397 107.77 100.423 107.796 100.45ZM107.46 81.0303C107.357 79.7629 107.228 76.8321 107.241 75.8818C107.241 75.7761 107.241 75.1562 107.332 75.631C107.41 76.0276 107.5 76.8716 107.552 77.1231C107.641 77.717 108.364 77.0174 108.468 77.0435C108.48 77.2288 107.667 77.6768 107.616 78.0862C107.603 78.1792 107.603 78.3638 107.628 78.43C107.719 78.7865 108.235 78.8921 108.52 78.7202C108.959 78.4434 109.242 78.1792 109.577 77.9678C110.198 77.5853 112.961 75.2753 113.335 75.3013C113.309 75.3802 112.005 76.5813 111.849 76.6878L111.812 76.7131C111.592 77.0174 110.185 78.0207 109.372 78.6934C109.372 78.6934 108.79 79.1161 108.933 79.3141C109.242 79.7629 111.863 78.2715 112.148 78.1263C112.935 77.7304 115.311 76.0798 115.814 76.0798C115.828 76.1192 115.762 76.172 115.724 76.1988C115.453 76.4095 113.27 77.7565 113.245 77.9276C113.155 78.4962 115.272 78.6279 115.93 78.4032C116.033 78.0206 116.201 77.5451 116.46 76.9773C116.782 76.3045 117.015 75.8424 117.582 74.9709C117.608 74.9307 117.88 74.5489 117.918 74.5749C117.957 74.601 117.622 75.1562 117.311 75.7233C116.988 76.3045 116.68 76.9118 116.614 77.0569C116.317 77.7036 116.136 78.232 116.06 78.6279C115.982 78.9844 116.008 79.2092 116.097 79.2747V79.2873C116.111 79.2873 116.111 79.2873 116.111 79.2873H116.124C116.227 79.3275 116.408 79.2747 116.627 79.0894C116.872 78.9048 117.144 78.5617 117.389 78.034C117.479 77.8495 117.557 77.6642 117.622 77.4394C117.518 77.3739 117.466 77.0837 117.466 76.7927C117.479 76.4496 117.557 75.9078 117.802 75.433C118.034 75.0111 118.409 74.6278 118.68 74.6546C118.9 74.6278 119.39 74.9307 119.649 74.9843C119.893 75.0237 119.958 75.0237 120.191 75.0371C120.616 75.0631 121.223 75.0237 121.637 74.9054C121.83 74.8659 122.024 74.7856 122.205 74.7461H122.218C122.347 74.7074 122.463 74.668 122.605 74.6278C122.76 74.601 123.03 74.4953 123.198 74.4432C123.419 74.3643 123.198 74.3107 123.134 74.2319C123.082 74.1135 123.689 74.1656 123.818 74.1135C123.856 74.0868 123.87 74.0339 123.87 74.0071C123.87 73.9937 123.87 73.9677 123.87 73.9543C123.818 73.9282 123.818 73.8754 123.831 73.836C123.856 73.8092 123.856 73.7831 123.87 73.7563C123.87 73.7563 123.87 73.7429 123.856 73.7303C123.856 73.7303 123.845 73.7169 123.831 73.7035C123.805 73.6908 123.754 73.6774 123.689 73.664C123.638 73.664 123.612 73.6246 123.612 73.5851C123.612 73.545 123.367 73.5323 123.069 73.5323C122.812 73.5182 122.488 73.545 122.243 73.5584C122.127 73.5584 122.036 73.5717 121.959 73.5717C121.934 73.6908 121.869 73.7303 121.765 73.7958C121.65 73.8486 121.456 73.9014 121.327 73.9543C121.198 74.0071 121.159 74.0466 121.018 74.0599C120.94 74.0599 120.824 74.0599 120.745 74.0339C120.513 73.9416 120.294 73.7035 120.319 73.664C120.475 73.44 121.249 73.3604 121.546 73.3477C121.598 73.3343 121.818 73.2941 121.934 73.2681C121.986 73.2153 122.024 73.149 122.05 73.1096V73.0969C121.908 73.1222 121.727 73.1624 121.584 73.1892C121.378 73.2287 121.198 73.2547 121.185 73.2547C120.849 73.2942 120.733 73.3209 120.566 73.3604C120.487 73.3872 120.397 73.4132 120.242 73.44C120.009 73.4928 119.688 73.6774 119.378 73.862C119.313 73.9148 119.235 73.9543 119.158 74.0071C119.222 74.1924 119.403 74.1924 119.623 74.1656C119.635 74.1656 120.191 74.1656 120.203 74.179C120.242 74.179 120.566 74.1656 120.745 74.2051C120.913 74.2453 121.004 74.3375 120.862 74.3643C120.603 74.3904 119.997 74.3502 119.764 74.4038C119.533 74.47 119.274 74.5749 119.092 74.5095C118.951 74.47 118.783 74.377 118.783 74.1924C118.655 74.2579 118.538 74.284 118.434 74.284C118.073 74.2721 117.622 74.3502 117.118 74.4298C116.808 74.4827 116.498 74.5355 116.162 74.5749C115.453 74.6546 114.691 74.7335 113.955 74.7856C113.438 74.8257 112.947 74.8391 112.509 74.8525C112.431 74.9307 112.289 75.0631 112.199 75.1688C111.773 75.6183 111.115 76.1326 110.533 76.5151C110.224 76.7272 109.461 77.0703 110.236 76.4362C110.495 76.2256 110.727 76.0671 110.998 75.8684C111.307 75.6184 111.722 75.1956 111.967 74.8659C111.709 74.8525 111.437 74.8391 111.089 74.799C110.702 74.7595 110.249 74.7074 109.63 74.6278C109.475 74.6144 109.242 74.5489 108.997 74.4827C108.674 74.3904 108.339 74.284 108.132 74.2051C107.681 74.0339 107.293 73.9416 106.906 73.8754C106.531 73.8091 106.131 73.7831 105.653 73.7563C105.421 73.7563 105.175 73.7303 104.93 73.7035C104.736 73.6908 104.543 73.6774 104.363 73.664C104.504 74.3502 104.374 77.9276 104.428 78.945C104.453 79.8165 104.479 80.5815 104.465 81.3473C104.465 81.572 104.466 81.8489 104.479 82.1391C104.479 82.8387 104.491 83.6179 104.53 83.961C104.582 84.4499 104.607 84.8064 104.62 85.215C104.633 85.3996 104.646 85.5841 104.659 85.8223C104.711 86.6938 104.749 87.7371 104.775 88.779C104.788 89.8485 104.788 90.8785 104.788 91.7365C104.788 91.8683 104.801 92.0268 104.801 92.2121C104.814 92.7398 104.814 93.4929 104.801 93.9543C104.853 93.9677 104.905 93.9677 104.97 93.9811C105.034 93.9811 104.995 93.9811 105.059 93.9811C105.162 93.9938 105.162 94.0466 105.292 94.06C105.512 94.0868 105.963 94.06 106.222 94.0868C106.389 94.1002 106.492 94.1262 106.596 94.2579C106.712 94.4031 106.893 94.7729 107.112 94.6933C107.241 94.6278 107.306 94.6278 107.449 94.5355C107.564 94.4559 107.938 94.377 108.042 94.4693C108.054 94.4827 108.054 94.4827 108.068 94.4961C108.08 92.7792 107.862 88.5952 107.668 85.215C107.577 83.4333 107.5 81.8891 107.46 81.0303ZM104.194 93.4125C104.232 93.571 104.285 93.862 104.491 93.9015C104.543 93.9148 104.582 93.9283 104.633 93.9283C104.646 93.4795 104.633 92.7398 104.633 92.2121C104.633 92.0007 104.62 91.8288 104.62 91.7365C104.62 90.8651 104.53 89.8224 104.517 88.7932C104.491 87.7498 104.543 86.7072 104.491 85.8223C104.479 85.6109 104.465 85.4137 104.453 85.215C104.439 84.8191 104.414 84.476 104.363 83.9744C104.35 83.9476 104.35 83.9081 104.35 83.8553C104.271 85.2544 104.259 91.6569 104.194 93.4125ZM97.0153 79.3275C96.9643 79.2092 96.8483 79.0894 96.7315 79.0239C96.5776 78.9316 96.474 78.9844 96.3967 79.0239C96.3317 79.0633 96.3062 79.0767 96.2799 79.2218C96.2413 79.3803 96.2281 79.6043 96.2026 79.8291C96.1253 80.3047 96.0472 80.8063 96.0866 80.9774C96.1384 80.9648 96.2281 80.8852 96.2675 80.8718C96.3704 80.9246 96.0348 82.2843 95.9837 82.5224C95.8283 83.3009 95.3505 86.0731 95.3249 86.8783C95.3125 87.1559 95.4796 87.1164 95.5307 86.9974C95.867 86.3239 96.7833 81.0965 97.0153 79.3275ZM82.0653 74.9448C82.1295 74.9843 82.2594 75.0111 82.3112 75.0111C82.4659 75.0237 82.6074 75.0371 82.7628 75.0237C82.8788 75.0111 83.0079 74.9977 83.1115 74.9843C83.1371 74.9843 83.2662 74.9709 83.369 74.9582C83.4602 74.9448 83.5493 74.9977 83.5887 75.0766C83.6281 75.1562 83.666 75.1956 83.7696 75.3013C83.8083 75.3534 83.9636 75.4464 84.1044 75.4992C84.2606 75.5647 84.4291 75.5781 84.4546 75.6183C84.44 75.6578 84.1832 75.6972 84.1446 75.7106C84.0154 75.7233 83.7046 75.7501 83.512 75.6838C83.4602 75.6578 83.4085 75.6183 83.3822 75.5915C83.318 75.5387 83.3049 75.4464 83.1371 75.3534C83.0605 75.3147 82.9948 75.3273 82.9051 75.3147C82.8394 75.3147 82.1689 75.3147 81.9369 75.3013C81.794 75.3013 81.6262 75.2879 81.5488 75.2879C81.4978 75.2752 81.2781 75.2752 81.0848 75.2879C80.9163 75.2879 80.7748 75.2879 80.7354 75.3013C80.6967 75.3013 80.6704 75.3147 80.6449 75.3147C80.607 75.3147 80.5683 75.3274 80.5413 75.3274C80.5158 75.3408 80.5034 75.3534 80.5158 75.407C80.5296 75.407 80.5296 75.4204 80.5296 75.433C80.5296 75.4859 80.491 75.5253 80.4392 75.5253C80.4253 75.5253 80.3866 75.5253 80.3487 75.5253C80.2962 75.5387 80.2188 75.5253 80.1802 75.5648C80.1802 75.5782 80.1678 75.5781 80.1678 75.5915C80.1678 75.5915 80.1678 75.5916 80.1678 75.605C80.1678 75.6184 80.2327 75.6444 80.2451 75.6972C80.2707 75.6838 80.2962 75.6838 80.3101 75.6838C80.3604 75.6838 80.5938 75.6972 80.607 75.7233C80.607 75.7761 80.4516 75.7501 80.3998 75.8163C80.3998 75.9607 80.6318 75.922 80.7609 75.9346C80.8003 75.9346 80.839 75.9607 80.8127 75.9741C80.723 76.0277 80.7098 76.1192 80.8266 76.1594C80.9674 76.2122 81.4977 76.3045 81.9493 76.3439C82.479 76.3841 82.5695 76.3439 82.6074 76.2256C82.6592 76.0931 82.7628 76.2122 82.8146 76.239C82.8788 76.2643 82.9561 76.2911 83.0604 76.3045C83.2275 76.344 83.9768 76.3179 84.5962 76.2785C84.9318 76.2643 85.2287 76.2785 85.3447 76.2643C85.4731 76.2643 85.6029 76.2256 85.6934 76.1988C85.6679 75.9607 85.6547 75.7233 85.6547 75.4725C85.6547 75.4598 85.6547 75.4464 85.6547 75.433C85.4089 75.433 85.2287 75.4204 84.9456 75.2753C84.8413 75.2217 84.7377 75.1562 84.6348 75.0892C84.5057 75.0111 84.3897 74.918 84.2606 74.8786C83.8214 74.7201 83.318 74.7595 82.827 74.7856C82.5695 74.799 82.3243 74.8258 82.0916 74.8131C82.0654 74.8131 82.0136 74.8131 81.988 74.8257C81.988 74.8525 82.0274 74.9054 82.0653 74.9448ZM103.807 71.7105C103.704 71.9345 103.665 73.0835 103.73 73.3872C103.756 73.4929 103.807 73.5323 103.872 73.4928C103.885 73.4795 103.885 71.552 103.807 71.7105ZM102.426 67.7371C102.361 67.6843 102.489 67.7103 102.489 67.7103C103.265 67.8815 103.588 68.2647 103.743 68.9249C103.768 69.0573 103.781 69.2025 103.794 69.3476C103.885 70.1134 103.756 70.8784 103.652 71.6316C103.574 72.16 103.536 72.701 103.574 73.1758C103.588 73.2681 103.627 73.3738 103.627 73.4928C103.627 73.5062 103.613 73.5323 103.601 73.5323C103.381 73.5978 103.175 73.4661 103.175 73.2287C103.175 73.2153 103.175 71.9612 103.175 71.9084C103.175 71.8027 103.316 71.5787 103.368 71.354C103.522 70.7869 103.588 70.1923 103.613 70.0204C103.64 69.7956 103.574 69.4265 103.549 69.1883C103.511 68.9115 103.522 68.7403 103.42 68.4888C103.265 68.133 102.684 67.9351 102.426 67.7371ZM85.8605 75.4725C85.7452 75.5915 86.0035 76.0537 86.0553 76.1854C86.1837 76.4891 86.4164 76.6602 86.5193 76.9378C86.5448 76.9773 86.6228 77.0837 86.6615 77.0964C86.6746 77.1753 87.359 78.0727 87.4618 78.1658C87.5654 78.3377 88.0812 78.852 88.2242 79.0239L88.2497 79.0499C88.4044 79.2352 88.3271 79.2352 88.5853 79.2873C88.7531 79.3275 89.3339 79.3141 89.4761 79.2873C89.7351 79.2218 90.7025 79.2218 90.5092 78.8125C90.496 78.7991 89.193 77.8354 89.1026 77.7959C88.9341 77.6374 88.4307 77.3471 88.2366 77.1358C88.0688 76.9773 87.7982 76.78 87.618 76.5813C87.5268 76.4764 87.2685 76.2517 87.2685 76.1326C87.359 76.1326 87.6289 76.4362 87.7719 76.4362C87.7719 76.4362 88.1848 76.7131 88.2366 76.7533C88.2498 76.7533 88.8823 77.1231 89.0245 77.2415C89.2179 77.3866 90.561 78.0341 90.7798 78.0996C90.8834 78.139 91.9938 78.6808 92.1361 78.7463C92.4323 78.9182 92.6387 78.9844 92.9627 79.0633C93.0911 79.1027 93.736 79.2747 93.7892 79.1028C93.9563 78.7597 92.4717 77.6114 92.2397 77.5057C91.8253 77.3077 91.0637 76.9378 90.7412 76.6602C90.561 76.5025 90.4442 76.4362 90.3027 76.2256C90.3027 76.2256 90.1356 76.1192 90.0444 76.0009C89.9926 75.9078 89.838 75.7501 89.8767 75.6444C89.8891 75.6444 89.8891 75.6444 89.9022 75.631C90.0569 75.7374 90.0444 75.8424 90.4187 76.0932L90.4574 76.1192C90.5478 76.1854 91.052 76.5292 91.2701 76.6602C91.8005 76.9512 92.3163 77.1626 92.8197 77.5191C93.0911 77.691 93.2457 77.9023 93.3748 77.9939C93.504 78.0727 93.8527 78.2841 93.8527 78.0207C93.8527 77.4394 93.5945 77.4134 93.3099 77.0041C93.3099 76.9907 93.2727 76.9512 93.2581 76.9512C93.2581 76.9512 92.9627 76.5419 92.9364 76.4891C92.8073 76.2643 92.7817 76.1326 92.6001 75.8818C92.4461 75.6578 92.0843 75.2618 91.8253 75.209C91.7742 75.209 88.2877 75.3802 88.1082 75.3936C87.8631 75.4204 85.9254 75.407 85.8605 75.4725ZM103.071 69.1757C103.006 69.1489 102.955 69.1228 102.929 69.0968C102.89 69.0439 102.878 68.9911 102.968 69.0038C102.981 69.0038 103.006 69.0038 103.02 69.0172C103.045 69.0306 103.071 69.0306 103.097 69.0574C103.11 69.0574 103.122 69.07 103.122 69.0834V69.1228C103.136 69.1362 103.122 69.1489 103.11 69.163C103.097 69.1757 103.084 69.1757 103.071 69.1757ZM96.447 89.5322C96.6542 89.4525 97.6099 89.0968 97.6362 89.07C97.9718 88.8453 97.3385 88.6741 97.2612 88.6346C97.0547 88.5156 96.6936 88.4628 96.436 88.3839C96.3704 88.753 96.3449 89.2152 96.4083 89.5188C96.4083 89.5188 96.4361 89.5322 96.447 89.5322Z" fill="url(#paint1_linear_3631_10050)"/>
<path fill-rule="evenodd" clip-rule="evenodd" d="M211.586 89.338L217.28 117.847L217.876 120.772C203.357 124.417 186.301 126.527 168.027 126.527C149.774 126.527 132.694 124.417 118.199 120.772H118.176L118.775 117.847L128.462 69.4369C137.073 65.3129 146.762 62.5068 157.071 61.3321C157.74 62.2675 158.267 63.2502 158.433 64.0179C159.128 67.3269 163.793 72.6986 164.031 74.568C164.127 75.4547 164.988 78.0445 165.994 80.5871C166.448 80.5871 166.902 80.5627 167.356 80.5627C183.455 80.5627 198.574 83.7528 211.586 89.338Z" fill="url(#paint2_linear_3631_10050)"/>
<path fill-rule="evenodd" clip-rule="evenodd" d="M165.421 102.909C162.407 103.005 159.417 102.98 156.523 102.884L156.451 95.5001C156.427 92.6223 158.413 90.2258 160.851 90.1284C163.317 90.0581 165.325 92.3601 165.35 95.2365L165.421 102.909Z" fill="white"/>
<path fill-rule="evenodd" clip-rule="evenodd" d="M179.889 103.15C176.875 103.197 173.909 103.125 170.991 102.981L170.751 95.6206C170.657 92.7442 172.569 90.3693 175.009 90.3219C177.473 90.2733 179.555 92.5752 179.651 95.453L179.889 103.15Z" fill="white"/>
<path fill-rule="evenodd" clip-rule="evenodd" d="M193.764 104.085C191.253 104.085 188.787 103.965 186.348 103.796C186.204 101.495 186.085 99.1931 185.965 96.8912C185.797 94.181 187.352 91.9764 189.386 91.9764C191.419 91.9764 193.213 94.181 193.357 96.8912C193.501 99.2891 193.62 101.687 193.764 104.085Z" fill="white"/>
<path fill-rule="evenodd" clip-rule="evenodd" d="M203.691 104.684C201.683 104.612 199.697 104.469 197.736 104.228C197.568 102.094 197.4 99.9351 197.209 97.7791C196.994 95.2595 198.166 93.2455 199.793 93.2928C201.42 93.3415 202.926 95.4285 203.142 97.9467C203.309 100.2 203.501 102.429 203.691 104.684Z" fill="white"/>
<path fill-rule="evenodd" clip-rule="evenodd" d="M211.564 105.787C210.079 105.668 208.574 105.474 207.114 105.186L206.42 99.216C206.157 96.8667 206.947 95.0217 208.167 95.1163C209.386 95.2123 210.607 97.2033 210.869 99.5296L211.564 105.787Z" fill="white"/>
<path fill-rule="evenodd" clip-rule="evenodd" d="M143.769 103.604C146.281 103.604 148.743 103.509 151.183 103.317C151.302 101.015 151.447 98.7131 151.567 96.4111C151.733 93.7009 150.179 91.495 148.144 91.495C146.113 91.495 144.318 93.7009 144.175 96.4111C144.031 98.8077 143.888 101.208 143.769 103.604Z" fill="white"/>
<path fill-rule="evenodd" clip-rule="evenodd" d="M133.172 104.684C135.181 104.612 137.166 104.469 139.127 104.228C139.295 102.094 139.463 99.9351 139.655 97.7791C139.868 95.2595 138.698 93.2455 137.07 93.2928C135.444 93.3415 133.937 95.4285 133.746 97.9467C133.554 100.2 133.362 102.429 133.172 104.684Z" fill="white"/>
<path fill-rule="evenodd" clip-rule="evenodd" d="M124.562 105.762C126.045 105.642 127.528 105.45 129.01 105.186L129.681 99.1929C129.944 96.8423 129.179 95.0216 127.959 95.1162C126.74 95.1892 125.518 97.1775 125.255 99.5295L124.562 105.762Z" fill="white"/>
<path fill-rule="evenodd" clip-rule="evenodd" d="M165.47 124.992C161.306 124.969 157.242 124.824 153.295 124.608L153.533 117.799C153.677 113.867 156.547 110.629 159.897 110.629C163.245 110.629 165.877 113.867 165.733 117.799L165.47 124.992Z" fill="white"/>
<path fill-rule="evenodd" clip-rule="evenodd" d="M183.457 124.489C179.414 124.754 175.277 124.921 171.067 124.969L170.97 117.92C170.898 113.82 173.651 110.558 177.07 110.629C180.467 110.727 183.314 114.154 183.361 118.229L183.457 124.489Z" fill="white"/>
<path fill-rule="evenodd" clip-rule="evenodd" d="M148.195 124.272C144.941 124.033 141.784 123.721 138.699 123.36L139.248 117.153C139.559 113.651 141.976 110.846 144.607 110.87C147.238 110.918 149.129 113.794 148.818 117.272L148.195 124.272Z" fill="white"/>
<path fill-rule="evenodd" clip-rule="evenodd" d="M134.009 122.763C131.689 122.426 129.417 122.068 127.215 121.661L128.006 116.698C128.483 113.675 130.422 111.276 132.334 111.349C134.248 111.421 135.42 113.939 134.942 116.96L134.009 122.763Z" fill="white"/>
<path fill-rule="evenodd" clip-rule="evenodd" d="M124.109 121.085C122.674 120.82 121.287 120.508 119.922 120.196L120.88 116.384C121.526 113.82 123.032 111.829 124.228 111.923C125.4 112.043 125.856 114.226 125.208 116.791L124.109 121.085Z" fill="white"/>
<path fill-rule="evenodd" clip-rule="evenodd" d="M197.763 123.171C194.63 123.555 191.424 123.889 188.123 124.152L187.644 117.272C187.381 113.698 189.343 110.775 192.022 110.798C194.7 110.822 197.093 113.771 197.356 117.344L197.763 123.171Z" fill="white"/>
<path fill-rule="evenodd" clip-rule="evenodd" d="M208.353 121.541C206.104 121.947 203.809 122.332 201.465 122.667L200.627 116.96C200.173 113.892 201.393 111.325 203.306 111.276C205.244 111.255 207.205 113.724 207.635 116.791L208.353 121.541Z" fill="white"/>
<path fill-rule="evenodd" clip-rule="evenodd" d="M215.124 120.174C213.737 120.484 212.35 120.772 210.914 121.06L209.837 116.791C209.192 114.227 209.622 112.044 210.818 111.923C212.015 111.829 213.522 113.82 214.167 116.384L215.124 120.174Z" fill="white"/>
<path fill-rule="evenodd" clip-rule="evenodd" d="M212.161 92.1194L212.4 93.3413C206.707 91.8315 200.823 90.6325 194.794 89.7228C186.088 88.4279 177.118 87.7561 168.028 87.7561C157.67 87.7561 147.408 88.6185 137.624 90.3216C132.864 91.1367 128.2 92.1437 123.679 93.3413L123.918 92.1194C128.295 90.9677 132.816 90.0107 137.434 89.2186C147.289 87.5168 157.598 86.6517 168.028 86.6517C177.165 86.6517 186.207 87.3235 194.962 88.6185C200.847 89.5052 206.611 90.6812 212.161 92.1194Z" fill="white"/>
<path fill-rule="evenodd" clip-rule="evenodd" d="M212.539 94.1337L212.659 94.7339L212.467 94.6852L212.276 94.6379L212.084 94.5663L211.893 94.5176L211.702 94.469C211.678 94.469 211.653 94.469 211.63 94.4446C211.342 94.277 211.534 93.8702 211.845 93.9432L212.037 93.9905L212.229 94.0378L212.42 94.0851L212.539 94.1337ZM208.951 93.7985C208.999 93.7985 209.07 93.7985 209.117 93.7742C209.381 93.6782 209.334 93.3187 209.07 93.2457L208.928 93.2227L208.736 93.1727L208.544 93.1267L208.328 93.0781L208.137 93.0308L207.97 92.9834C207.731 92.9348 207.54 93.1727 207.635 93.366C207.683 93.462 207.755 93.5093 207.827 93.5349L208.019 93.5822L208.209 93.6066L208.401 93.6539L208.592 93.7012L208.784 93.7498L208.951 93.7985ZM205.052 92.9091C205.364 92.9834 205.554 92.5752 205.266 92.4076C205.243 92.3819 205.219 92.3819 205.172 92.3819L204.98 92.3346L204.789 92.2873L204.597 92.2387L204.407 92.2157L204.191 92.1684L204.07 92.144C203.951 92.1197 203.855 92.1684 203.784 92.2387C203.665 92.4076 203.736 92.6469 203.951 92.6712L204.07 92.6955L204.286 92.7442L204.478 92.7915L204.669 92.8374L204.86 92.8618L205.052 92.9091ZM201.153 92.1197C201.464 92.1913 201.632 91.7588 201.344 91.6169C201.32 91.5912 201.297 91.5912 201.272 91.5912L201.201 91.5682L200.986 91.5425L200.794 91.4952L200.603 91.4492L200.387 91.4236L200.196 91.3776H200.149C199.838 91.3276 199.669 91.7115 199.933 91.8791C199.957 91.9048 200.004 91.9048 200.029 91.9278H200.076L200.292 91.9764L200.483 91.9994L200.698 92.0481L200.89 92.071L201.082 92.1197H201.153ZM197.229 91.4492C197.54 91.4952 197.708 91.1127 197.446 90.9207C197.397 90.9207 197.373 90.8978 197.325 90.8978L197.158 90.8707L196.943 90.8248L196.751 90.8005L196.536 90.7775L196.345 90.7288L196.201 90.7045C195.891 90.6571 195.746 91.0884 196.034 91.233C196.057 91.256 196.082 91.256 196.106 91.256L196.248 91.2803L196.44 91.306L196.656 91.3519L196.847 91.3776L197.062 91.3993L197.229 91.4492ZM193.307 90.8505C193.642 90.8707 193.762 90.4409 193.45 90.322C193.426 90.2963 193.403 90.2962 193.378 90.2962L193.259 90.2733L193.067 90.249L192.852 90.226L192.661 90.2016L192.446 90.153L192.254 90.1286C192.158 90.1286 192.063 90.153 191.991 90.226C191.848 90.3936 191.943 90.6572 192.182 90.6815L192.374 90.7045L192.565 90.7288L192.781 90.7775L192.973 90.8005L193.188 90.8248L193.307 90.8505ZM189.36 90.322C189.646 90.3693 189.791 89.9854 189.527 89.8164C189.503 89.7948 189.456 89.7948 189.408 89.7948L189.337 89.7691L189.145 89.7461L188.928 89.7231L188.715 89.6974L188.523 89.6745L188.307 89.6502H188.284C188.02 89.6258 187.853 89.961 188.069 90.1286C188.116 90.1773 188.163 90.2016 188.212 90.2016H188.236L188.451 90.226L188.666 90.249L188.858 90.2733L189.073 90.2962L189.288 90.322H189.36ZM185.388 89.9124C185.701 89.9381 185.82 89.5298 185.533 89.3866C185.509 89.3609 185.484 89.3609 185.437 89.3609H185.388L185.173 89.3379L184.959 89.3149L184.768 89.2892H184.552L184.337 89.2676H184.312C184.169 89.2419 184.073 89.3149 184.026 89.4339C183.93 89.6015 184.049 89.7948 184.241 89.8164H184.288H184.504L184.719 89.8421L184.911 89.8664L185.126 89.8894L185.341 89.9124H185.388ZM181.418 89.5785C181.633 89.6015 181.777 89.3866 181.705 89.1946C181.658 89.0986 181.562 89.027 181.466 89.027H181.395L181.203 89.0027H180.987L180.772 88.9783L180.556 88.9554H180.341H180.318C180.175 88.931 180.03 89.027 180.007 89.1703C179.983 89.3379 180.103 89.4839 180.271 89.5055H180.318H180.509L180.725 89.5298L180.94 89.5542H181.155L181.371 89.5785H181.418ZM177.447 89.3379C177.567 89.3379 177.686 89.2676 177.735 89.123C177.782 88.9554 177.663 88.7864 177.471 88.7864H177.4L177.184 88.7621H176.969L176.754 88.7391H176.539L176.324 88.7148C176.06 88.7148 175.94 89.0027 176.108 89.1946C176.156 89.2419 176.228 89.2676 176.3 89.2892H176.514H176.729L176.946 89.3149H177.161L177.353 89.3379H177.447ZM173.453 89.1703C173.596 89.1703 173.715 89.0986 173.739 88.9554C173.788 88.7864 173.645 88.6188 173.477 88.6188H173.357H173.142L172.926 88.5958H172.711H172.52H172.328C172.232 88.5958 172.113 88.6431 172.066 88.7391C171.969 88.9311 172.113 89.1459 172.305 89.1459H172.496H172.711L172.926 89.1703H173.142H173.334H173.453ZM169.482 89.0987C169.794 89.0987 169.864 88.6661 169.553 88.5715C169.53 88.5471 169.506 88.5472 169.482 88.5472H169.315H169.099H168.884H168.669H168.453H168.334C168.023 88.5472 167.927 88.9554 168.238 89.0743C168.262 89.0987 168.285 89.0987 168.334 89.0987H168.453H168.669H168.884H169.099H169.315H169.482ZM165.487 89.123C165.727 89.0986 165.845 88.8107 165.678 88.6431C165.631 88.5958 165.559 88.5472 165.487 88.5472L165.344 88.5715H165.105H164.866H164.626H164.363H164.338C164.004 88.5958 163.933 89.027 164.267 89.123C164.291 89.123 164.315 89.123 164.338 89.123H164.387H164.626H164.866H165.105H165.367H165.487ZM161.492 89.2189C161.612 89.1946 161.732 89.123 161.755 89.0027C161.803 88.8337 161.684 88.6431 161.469 88.6661H161.206H160.966L160.727 88.6918H160.489H160.344C160.057 88.7148 159.962 89.0986 160.225 89.2189C160.249 89.2419 160.32 89.2676 160.368 89.2419H160.512H160.751L160.99 89.2189H161.229H161.469H161.492ZM157.522 89.3866C157.616 89.3866 157.689 89.3379 157.737 89.2676C157.857 89.0743 157.714 88.8337 157.474 88.8337L157.354 88.8594H157.091L156.851 88.8837H156.613L156.373 88.9067H156.35C156.039 88.9311 155.967 89.3379 156.278 89.4568C156.302 89.4568 156.35 89.4568 156.373 89.4568H156.421L156.661 89.4339H156.9L157.139 89.4109H157.378L157.522 89.3866ZM153.55 89.6745C153.79 89.6502 153.91 89.3379 153.695 89.1703C153.646 89.123 153.575 89.0987 153.503 89.0987L153.264 89.123L153.023 89.1459L152.785 89.1703L152.546 89.1946H152.356C152.043 89.2419 151.996 89.6745 152.331 89.7461C152.356 89.7461 152.378 89.7691 152.403 89.7461H152.593L152.833 89.7231L153.072 89.6974L153.311 89.6745H153.55ZM149.58 90.0111C149.628 90.0111 149.676 89.9854 149.722 89.961C149.939 89.7948 149.795 89.4339 149.509 89.4568L149.437 89.4839L149.198 89.5055L148.959 89.5298L148.718 89.5542L148.48 89.5785H148.384C148.049 89.6258 148.049 90.0813 148.36 90.1286C148.384 90.1286 148.409 90.1286 148.432 90.1286H148.552L148.791 90.107L149.006 90.0813L149.244 90.0583L149.485 90.0327L149.58 90.0111ZM145.609 90.4652C145.919 90.4165 145.967 90.0111 145.656 89.9124C145.609 89.9124 145.585 89.9124 145.538 89.9124L145.394 89.9381L145.179 89.961L144.939 89.9854L144.701 90.0111L144.46 90.0583H144.413C144.126 90.0813 144.055 90.4652 144.341 90.5855C144.389 90.6085 144.436 90.6085 144.485 90.6085H144.533L144.772 90.5612L145.012 90.5382L145.251 90.5139L145.466 90.4896L145.609 90.4652ZM141.662 90.9937C141.973 90.9451 141.997 90.5139 141.687 90.4409C141.638 90.4409 141.615 90.4409 141.591 90.4409L141.423 90.4652L141.184 90.5139L140.944 90.5382L140.705 90.5855L140.49 90.6085H140.442C140.178 90.6572 140.131 91.0167 140.371 91.137C140.442 91.1614 140.49 91.1843 140.539 91.1614H140.562L140.801 91.137L141.04 91.0884L141.28 91.0654L141.496 91.0167L141.662 90.9937ZM137.74 91.6169C138.05 91.5682 138.05 91.137 137.74 91.0654C137.692 91.0654 137.668 91.0654 137.642 91.0654L137.476 91.1127L137.237 91.137L136.997 91.1843L136.783 91.233L136.543 91.256L136.519 91.2803C136.424 91.2803 136.327 91.3519 136.304 91.4236C136.208 91.6412 136.4 91.8561 136.615 91.8075H136.638L136.879 91.7588L137.118 91.7358L137.331 91.6899L137.572 91.6412L137.74 91.6169ZM133.816 92.3346C134.079 92.2873 134.128 91.9278 133.864 91.8075C133.816 91.7831 133.768 91.7831 133.697 91.7831L133.578 91.8318L133.337 91.8561L133.122 91.9048L132.883 91.9521L132.645 91.9994L132.596 92.0237C132.285 92.071 132.285 92.5036 132.596 92.5496C132.621 92.5752 132.668 92.5752 132.691 92.5496H132.764L133.003 92.5036L133.218 92.4549L133.457 92.4076L133.674 92.3603L133.816 92.3346ZM129.917 93.1511C130.205 93.0781 130.228 92.6955 129.917 92.5995C129.87 92.5995 129.846 92.5995 129.798 92.5995L129.727 92.6225L129.487 92.6712L129.271 92.7185L129.055 92.7672L128.817 92.8158L128.674 92.8618C128.363 92.9348 128.41 93.3903 128.744 93.4146C128.768 93.4146 128.793 93.3903 128.817 93.3903L128.96 93.366L129.177 93.3187L129.39 93.2727L129.631 93.2227L129.846 93.1727L129.917 93.1511ZM126.042 94.0634C126.353 93.9648 126.33 93.5579 126.018 93.5092C125.97 93.5092 125.946 93.5092 125.899 93.5092L125.707 93.5579L125.492 93.6296L125.253 93.6782L125.038 93.7269L124.823 93.7985H124.798C124.512 93.8702 124.512 94.277 124.823 94.327C124.87 94.3487 124.894 94.3487 124.942 94.327H124.966L125.181 94.277L125.396 94.2054L125.635 94.1581L125.851 94.1108L126.042 94.0634Z" fill="white"/>
<path fill-rule="evenodd" clip-rule="evenodd" d="M215.433 108.52L215.649 109.647C210.219 109.024 204.694 108.495 199.119 108.09C188.906 107.345 178.5 106.961 168.023 106.961C158.096 106.961 148.217 107.298 138.505 107.992C132.382 108.399 126.353 108.975 120.42 109.647L120.637 108.52C126.472 107.849 132.406 107.298 138.409 106.89C148.169 106.195 158.072 105.858 168.023 105.858C178.525 105.858 188.953 106.242 199.215 106.985C204.669 107.394 210.075 107.897 215.433 108.52Z" fill="white"/>
<path fill-rule="evenodd" clip-rule="evenodd" d="M215.794 110.365L215.913 110.94L215.698 110.917L215.459 110.893L215.244 110.87L215.005 110.846L214.767 110.821L214.526 110.797C214.479 110.774 214.43 110.774 214.406 110.748C214.144 110.582 214.311 110.2 214.598 110.246L214.837 110.271L215.076 110.293L215.291 110.317L215.532 110.343L215.77 110.365H215.794ZM120.159 110.94L120.28 110.365H120.422L120.639 110.343L120.878 110.317L121.093 110.293L121.308 110.246L121.524 110.221L121.762 110.2C121.81 110.2 121.835 110.2 121.882 110.221C122.169 110.293 122.146 110.727 121.835 110.748H121.81L121.596 110.774L121.379 110.797L121.164 110.821L120.925 110.87L120.71 110.893L120.494 110.917L120.28 110.94H120.159ZM212.829 110.605C213.162 110.628 213.258 110.2 212.972 110.078C212.948 110.055 212.923 110.055 212.899 110.055L212.733 110.031L212.493 110.006L212.254 109.982L212.015 109.958L211.776 109.935L211.561 109.909L211.321 109.887L211.082 109.862L210.843 109.837L210.604 109.814L210.364 109.789L210.125 109.766H210.054C209.958 109.743 209.862 109.789 209.79 109.862C209.671 110.031 209.766 110.293 210.006 110.293L210.076 110.317L210.317 110.343L210.555 110.365L210.771 110.39L211.011 110.413L211.25 110.438L211.489 110.462L211.728 110.485L211.968 110.511L212.182 110.534L212.422 110.558L212.661 110.582L212.829 110.605ZM208.307 110.127C208.379 110.15 208.475 110.101 208.546 110.055C208.69 109.887 208.594 109.6 208.354 109.574H208.235L207.996 109.551L207.781 109.527L207.542 109.502L207.303 109.479L207.062 109.455L206.824 109.431H206.585L206.346 109.408L206.105 109.383L205.867 109.36L205.628 109.335L205.508 109.31C205.198 109.287 205.078 109.693 205.366 109.837C205.389 109.862 205.413 109.862 205.46 109.862L205.579 109.887L205.819 109.909L206.058 109.935L206.297 109.958L206.536 109.982H206.776L207.015 110.006L207.23 110.031L207.47 110.055L207.71 110.078L207.948 110.101L208.187 110.127H208.307ZM203.761 109.72C203.882 109.743 203.978 109.671 204.049 109.574C204.121 109.383 204.001 109.191 203.81 109.166H203.738L203.499 109.144L203.26 109.118H203.021L202.781 109.095L202.542 109.071L202.303 109.048L202.064 109.024L201.824 108.998H201.585L201.346 108.975L201.108 108.951H200.963C200.652 108.928 200.532 109.335 200.82 109.455C200.844 109.479 200.867 109.479 200.916 109.502H201.059L201.299 109.527L201.538 109.551H201.777L202.016 109.574L202.256 109.6L202.495 109.623L202.733 109.647L202.973 109.671H203.213L203.452 109.693L203.69 109.72H203.761ZM199.217 109.36C199.456 109.383 199.624 109.095 199.456 108.903C199.409 108.855 199.337 108.807 199.266 108.807H199.194L198.953 108.783L198.715 108.76H198.475L198.237 108.734L197.998 108.71H197.758L197.519 108.688L197.256 108.663H197.016L196.777 108.638L196.538 108.617H196.419C196.155 108.591 196.012 108.879 196.18 109.071C196.227 109.118 196.299 109.166 196.37 109.166H196.515L196.753 109.191L196.992 109.216H197.231L197.471 109.239L197.71 109.263H197.949L198.188 109.287L198.428 109.31L198.667 109.335H198.906L199.145 109.36H199.217ZM194.673 109.048C194.983 109.071 195.079 108.638 194.791 108.52C194.768 108.52 194.744 108.495 194.695 108.495H194.625L194.385 108.471H194.145L193.883 108.448H193.644L193.405 108.424L193.165 108.399H192.926L192.687 108.375H192.448L192.208 108.352L191.969 108.326H191.85C191.564 108.306 191.419 108.71 191.707 108.855C191.754 108.879 191.779 108.879 191.826 108.879L191.922 108.903H192.16L192.423 108.928H192.663L192.902 108.951H193.141L193.38 108.975L193.62 108.998H193.859L194.098 109.024H194.337L194.577 109.048H194.673ZM190.104 108.783C190.39 108.807 190.534 108.448 190.271 108.279C190.247 108.256 190.2 108.233 190.151 108.233H190.032H189.793L189.529 108.207H189.29L189.051 108.183H188.812L188.572 108.16H188.333L188.094 108.137H187.832L187.592 108.111H187.352H187.304C186.971 108.09 186.875 108.52 187.185 108.638C187.21 108.638 187.233 108.663 187.257 108.663H187.329H187.568L187.807 108.688H188.046L188.309 108.71H188.549L188.787 108.734H189.028L189.266 108.76H189.505L189.744 108.783H189.985H190.104ZM185.558 108.591C185.846 108.591 185.965 108.207 185.703 108.064C185.678 108.04 185.63 108.04 185.582 108.04L185.415 108.017H185.175L184.913 107.992H184.674H184.435L184.195 107.968H183.956L183.717 107.944H183.453H183.214L182.975 107.921H182.736C182.617 107.921 182.521 107.968 182.473 108.09C182.377 108.256 182.496 108.471 182.713 108.471L182.952 108.495H183.191H183.43L183.693 108.52H183.932H184.171L184.41 108.544H184.65L184.889 108.568H185.151H185.39L185.558 108.591ZM181.014 108.424C181.134 108.424 181.253 108.352 181.277 108.233C181.349 108.064 181.206 107.872 181.014 107.872H180.774L180.535 107.849H180.296H180.057L179.793 107.825H179.555H179.316H179.075L178.813 107.799H178.574H178.335H178.167C178.071 107.777 177.952 107.849 177.905 107.944C177.809 108.111 177.952 108.326 178.143 108.352H178.31H178.574H178.813L179.052 108.375H179.29H179.531H179.793L180.032 108.399H180.273H180.511L180.75 108.424H181.014ZM176.445 108.306C176.708 108.326 176.852 107.992 176.637 107.825C176.588 107.777 176.516 107.753 176.445 107.753H176.373H176.134H175.895L175.631 107.727H175.392H175.153H174.915H174.651H174.412L174.173 107.704H173.933H173.67H173.598C173.527 107.704 173.479 107.727 173.431 107.777C173.216 107.944 173.336 108.256 173.598 108.256H173.67H173.909L174.173 108.279H174.412H174.651H174.89H175.13H175.392L175.631 108.306H175.872H176.11H176.373H176.445ZM171.876 108.233C172.211 108.233 172.283 107.825 171.996 107.704C171.948 107.704 171.923 107.68 171.9 107.68H171.708H171.468H171.23H170.991H170.728H170.488H170.25H170.011H169.747H169.508H169.269H169.029C168.719 107.68 168.623 108.09 168.933 108.207C168.982 108.233 169.006 108.233 169.029 108.233H169.269H169.508H169.747H169.986H170.25H170.488H170.728H170.966H171.23H171.468H171.708H171.876ZM167.33 108.233C167.643 108.233 167.739 107.825 167.426 107.68C167.403 107.68 167.355 107.68 167.33 107.68H167.092H166.876H166.637H166.398H166.16H165.943H165.704H165.465H165.226H165.011H164.772H164.532H164.485C164.174 107.68 164.078 108.064 164.34 108.207C164.389 108.233 164.436 108.233 164.485 108.233H164.532H164.772H165.011H165.25H165.465H165.704H165.943H166.16H166.398H166.637H166.876H167.092H167.33ZM162.762 108.256C162.954 108.256 163.072 108.09 163.049 107.921C163.025 107.799 162.906 107.704 162.762 107.704H162.667H162.451H162.213H161.974L161.734 107.727H161.519H161.279H161.04H160.802H160.585H160.346L160.107 107.753H159.916C159.58 107.753 159.509 108.207 159.843 108.306C159.868 108.306 159.892 108.306 159.916 108.306H160.131H160.346L160.585 108.279H160.825H161.064H161.279H161.519H161.757H161.974L162.213 108.256H162.451H162.691H162.762ZM158.217 108.326C158.528 108.326 158.6 107.896 158.289 107.799C158.241 107.777 158.217 107.777 158.194 107.777H158.027L157.787 107.799H157.548H157.332H157.093L156.853 107.825H156.638H156.399H156.16L155.945 107.849H155.706H155.466H155.347C155.037 107.872 154.964 108.306 155.275 108.399C155.299 108.399 155.323 108.424 155.37 108.424L155.491 108.399H155.73H155.945H156.184L156.423 108.375H156.638H156.878L157.117 108.352H157.332H157.571H157.81H158.027L158.217 108.326ZM153.648 108.471C153.744 108.471 153.839 108.424 153.888 108.326C154.008 108.16 153.863 107.896 153.625 107.921H153.386H153.147L152.932 107.944H152.691H152.452L152.237 107.968H151.998H151.759L151.544 107.992H151.303L151.065 108.017H150.85H150.777C150.515 108.017 150.396 108.375 150.635 108.52C150.683 108.568 150.753 108.568 150.802 108.568H150.873H151.09L151.328 108.544H151.568H151.783L152.022 108.52H152.26L152.476 108.495H152.716H152.955L153.17 108.471H153.409H153.648ZM149.104 108.638C149.391 108.617 149.462 108.256 149.223 108.111C149.176 108.09 149.128 108.09 149.08 108.09H148.984L148.767 108.111H148.53L148.315 108.137H148.075H147.836L147.621 108.16H147.382L147.143 108.183H146.926L146.687 108.207H146.472L146.233 108.233H146.209C145.921 108.233 145.85 108.638 146.138 108.76C146.186 108.783 146.209 108.783 146.257 108.783L146.497 108.76H146.711L146.951 108.734H147.189L147.405 108.71H147.644L147.86 108.688H148.1H148.339L148.554 108.663H148.793L149.032 108.638H149.104ZM144.535 108.879C144.87 108.855 144.918 108.399 144.583 108.326C144.56 108.326 144.535 108.306 144.511 108.326H144.391H144.151L143.936 108.352H143.697L143.482 108.375L143.243 108.399H143.004L142.789 108.424H142.548L142.335 108.448H142.094L141.879 108.471H141.664C141.545 108.495 141.448 108.568 141.401 108.663C141.353 108.855 141.498 109.048 141.689 109.048L141.903 109.024L142.143 108.998H142.358L142.597 108.975H142.813L143.051 108.951H143.267L143.507 108.928L143.746 108.903H143.961L144.2 108.879H144.415H144.535ZM139.989 109.144C140.277 109.118 140.373 108.734 140.085 108.617C140.038 108.591 140.014 108.591 139.942 108.591H139.799L139.584 108.617L139.345 108.638H139.128L138.889 108.663L138.674 108.688H138.435L138.22 108.71L137.981 108.734H137.766L137.527 108.76L137.31 108.783H137.12C137.048 108.807 136.977 108.832 136.928 108.879C136.737 109.048 136.881 109.36 137.143 109.335H137.333L137.574 109.31L137.789 109.287H138.028L138.244 109.263L138.484 109.239H138.699L138.938 109.216L139.176 109.191H139.392L139.63 109.166L139.846 109.144H139.989ZM135.445 109.479C135.756 109.431 135.803 109.024 135.517 108.928C135.469 108.928 135.445 108.903 135.398 108.928H135.254L135.015 108.951L134.799 108.975H134.56L134.345 108.998L134.106 109.024L133.891 109.048H133.676L133.436 109.071L133.22 109.095L132.981 109.118L132.766 109.144H132.55C132.24 109.166 132.192 109.623 132.527 109.693C132.55 109.693 132.574 109.693 132.598 109.693H132.813L133.028 109.671L133.269 109.647L133.484 109.623L133.723 109.6H133.938L134.153 109.574L134.393 109.551L134.607 109.527H134.848L135.063 109.502L135.302 109.479H135.445ZM130.901 109.837C130.995 109.837 131.091 109.789 131.14 109.693C131.235 109.502 131.068 109.287 130.852 109.287L130.733 109.31L130.494 109.335L130.278 109.36H130.038L129.823 109.383L129.584 109.408L129.369 109.431L129.154 109.455L128.915 109.479L128.699 109.502H128.461L128.245 109.527L128.03 109.551H128.007C127.719 109.574 127.647 109.982 127.958 110.101C127.982 110.101 128.03 110.101 128.077 110.101L128.292 110.078H128.532L128.746 110.055L128.962 110.031L129.202 110.006L129.418 109.982L129.656 109.958L129.872 109.935L130.086 109.909H130.325L130.541 109.887L130.78 109.862L130.901 109.837ZM126.355 110.271C126.498 110.271 126.594 110.174 126.618 110.055C126.643 109.862 126.498 109.72 126.308 109.72L126.212 109.743L125.995 109.766H125.78L125.541 109.789L125.326 109.814L125.111 109.837L124.872 109.862L124.657 109.887L124.441 109.909L124.203 109.935L123.987 109.958L123.772 109.982L123.533 110.006L123.461 110.031C123.341 110.031 123.246 110.127 123.222 110.246C123.197 110.438 123.341 110.582 123.533 110.582L123.604 110.558L123.82 110.534L124.035 110.511L124.275 110.485L124.49 110.462L124.704 110.438L124.944 110.413L125.16 110.39L125.398 110.365L125.614 110.343L125.829 110.317H126.068L126.283 110.293L126.355 110.271Z" fill="white"/>
<path fill-rule="evenodd" clip-rule="evenodd" d="M161.474 84.4704C159.632 84.6137 157.814 84.7097 156.02 84.7354L155.973 80.2274C155.949 78.4526 157.168 76.9171 158.676 76.7982C160.158 76.6779 161.403 78.0188 161.427 79.7706L161.474 84.4704Z" fill="white"/>
<path fill-rule="evenodd" clip-rule="evenodd" d="M150.088 86.0289C148.413 86.2451 146.785 86.3898 145.184 86.4844C145.231 85.0705 145.255 83.6323 145.278 82.2171C145.303 80.5396 146.451 79.0027 147.791 78.8365C149.131 78.6445 150.207 79.8908 150.182 81.5466C150.135 83.0565 150.111 84.5434 150.088 86.0289Z" fill="white"/>
<path fill-rule="evenodd" clip-rule="evenodd" d="M139.897 87.3725C138.415 87.6591 136.98 87.874 135.568 88.043C135.641 86.7021 135.712 85.3355 135.784 83.9906C135.854 82.3861 136.907 80.8979 138.104 80.6586C139.3 80.4424 140.208 81.5467 140.114 83.1282C140.042 84.5434 139.97 85.9573 139.897 87.3725Z" fill="white"/>
<path fill-rule="evenodd" clip-rule="evenodd" d="M130.659 88.5474C129.391 88.9069 128.124 89.1948 126.904 89.4341L127.24 85.5993C127.384 84.0867 128.34 82.6256 129.368 82.3377C130.421 82.0497 131.162 83.0311 131.019 84.5436L130.659 88.5474Z" fill="white"/>
<path fill-rule="evenodd" clip-rule="evenodd" d="M152.959 67.7353L156.045 67.5203L156.213 70.9469L153.151 71.1875L152.959 67.7353Z" fill="white"/>
<path fill-rule="evenodd" clip-rule="evenodd" d="M146.353 68.9341C147.261 68.8611 148.194 68.7894 149.104 68.6948C149.128 69.7721 149.151 70.8521 149.2 71.9065C148.266 72.0024 147.357 72.0754 146.425 72.1714C146.4 71.09 146.376 70.0127 146.353 68.9341Z" fill="white"/>
<path fill-rule="evenodd" clip-rule="evenodd" d="M140.159 70.4695C140.972 70.3708 141.785 70.3005 142.598 70.2045C142.598 71.2102 142.598 72.1942 142.575 73.2012C141.762 73.2959 140.948 73.3932 140.134 73.4648C140.159 72.4822 140.159 71.4751 140.159 70.4695Z" fill="white"/>
<path fill-rule="evenodd" clip-rule="evenodd" d="M134.369 72.1942C135.063 72.0995 135.756 71.9792 136.474 71.8589C136.45 72.793 136.45 73.7054 136.427 74.6394C135.732 74.7583 135.039 74.857 134.321 74.9746C134.345 74.0663 134.345 73.1282 134.369 72.1942Z" fill="white"/>
<path fill-rule="evenodd" clip-rule="evenodd" d="M129.418 73.7055L131.212 73.3933L130.996 75.9331L129.202 76.271L129.418 73.7055Z" fill="white"/>
<path fill-rule="evenodd" clip-rule="evenodd" d="M126.263 80.3706L126.525 79.1473C131.333 77.901 136.429 76.7981 141.786 75.8627C148.652 74.6637 155.9 73.7284 163.434 73.0809C163.649 73.4891 163.817 73.8487 163.913 74.1366C156.283 74.784 148.939 75.7438 141.978 76.9427C136.476 77.9254 131.214 79.0527 126.263 80.3706Z" fill="white"/>
<path fill-rule="evenodd" clip-rule="evenodd" d="M125.997 81.7129L126.119 81.1141C131.261 79.7489 136.739 78.5472 142.504 77.5416C149.345 76.3426 156.568 75.4072 164.056 74.7584C164.08 74.9044 164.127 75.095 164.176 75.2869C156.689 75.933 149.441 76.8698 142.599 78.0701C136.762 79.0987 131.189 80.3233 125.997 81.7129Z" fill="white"/>
<path fill-rule="evenodd" clip-rule="evenodd" d="M157.741 63.9448C158.003 63.8975 158.076 63.5623 157.837 63.4177C157.79 63.3947 157.718 63.3704 157.669 63.3947L157.502 63.4177H157.311L157.144 63.442H157.095C156.976 63.4663 156.88 63.538 156.856 63.6569C156.808 63.8502 156.952 64.0179 157.167 63.9922H157.191L157.383 63.9692H157.55L157.741 63.9448ZM155.469 64.2098C155.804 64.1611 155.804 63.7299 155.493 63.6569C155.445 63.6569 155.422 63.6569 155.397 63.6569H155.326L155.134 63.6813L154.966 63.7299H154.823C154.536 63.7773 154.488 64.1611 154.775 64.2571C154.823 64.2801 154.871 64.2801 154.919 64.2801L155.039 64.2571L155.205 64.2328L155.397 64.2098H155.469ZM153.22 64.5207C153.34 64.5207 153.436 64.4247 153.46 64.3044C153.508 64.1125 153.34 63.9449 153.125 63.9692L152.982 63.9922L152.79 64.0422L152.622 64.0638H152.575C152.455 64.0895 152.36 64.1855 152.336 64.3044C152.311 64.4977 152.479 64.641 152.671 64.6166H152.718L152.886 64.5693L153.076 64.545L153.22 64.5207ZM150.972 64.9046C151.115 64.8816 151.211 64.7613 151.211 64.641C151.235 64.4491 151.068 64.3044 150.876 64.3531H150.828L150.661 64.3774L150.469 64.4247L150.301 64.449C150.207 64.4734 150.111 64.545 150.088 64.641C150.039 64.8329 150.207 65.0235 150.422 65.0019L150.566 64.9762L150.755 64.9275L150.924 64.9046H150.972ZM148.747 65.3128C149.058 65.2398 149.035 64.8086 148.723 64.7613C148.7 64.7613 148.652 64.7613 148.628 64.7613L148.508 64.7842L148.341 64.8329L148.174 64.8559L148.078 64.8816C147.766 64.9519 147.766 65.3601 148.053 65.4331C148.102 65.4331 148.148 65.4331 148.197 65.4331L148.268 65.4087L148.459 65.3601L148.628 65.3371L148.747 65.3128ZM146.522 65.7683C146.786 65.7196 146.834 65.3601 146.571 65.2398C146.499 65.2182 146.452 65.2182 146.403 65.2398L146.211 65.2655L146.045 65.3128L145.877 65.3601H145.83C145.518 65.4331 145.566 65.9116 145.9 65.9116C145.923 65.9116 145.949 65.9116 145.972 65.9116L145.996 65.8873L146.188 65.8643L146.356 65.817L146.522 65.7683ZM144.298 66.2955C144.44 66.2725 144.538 66.1522 144.513 66.0089C144.513 65.8413 144.346 65.7196 144.178 65.744L144.131 65.7683L143.939 65.817L143.773 65.8413L143.605 65.8873C143.317 65.9602 143.317 66.3928 143.652 66.4387C143.675 66.4387 143.724 66.4387 143.748 66.4387L143.916 66.3928L144.082 66.3441L144.274 66.2955H144.298ZM142.121 66.8469C142.432 66.7753 142.36 66.3198 142.049 66.3198C142.002 66.3198 141.978 66.3198 141.953 66.3198L141.882 66.3441L141.691 66.3928L141.523 66.4387L141.403 66.4658C141.092 66.5591 141.14 66.9916 141.475 67.0159C141.5 67.0159 141.523 67.0159 141.571 67.0159L141.691 66.9673L141.859 66.9199L142.026 66.8713L142.121 66.8469ZM139.92 67.4701C140.233 67.3741 140.16 66.9429 139.849 66.9199C139.824 66.9199 139.801 66.9429 139.754 66.9429L139.632 66.9673L139.466 67.0159L139.298 67.0862L139.203 67.1119C138.915 67.2065 138.965 67.6391 139.298 67.6391C139.323 67.6391 139.347 67.6391 139.37 67.6391L139.466 67.6134L139.632 67.5674L139.801 67.5201L139.92 67.4701ZM137.768 68.1419C137.791 68.1176 137.84 68.0946 137.864 68.0702C138.079 67.854 137.864 67.5201 137.576 67.6134L137.433 67.662L137.266 67.7107L137.098 67.7593L137.026 67.7823C136.74 67.9026 136.811 68.3325 137.122 68.3325C137.17 68.3325 137.194 68.3325 137.218 68.3095L137.29 68.2865L137.457 68.2378L137.624 68.1892L137.768 68.1419ZM135.615 68.861C135.877 68.765 135.853 68.3582 135.543 68.3095C135.495 68.3095 135.448 68.3095 135.423 68.3325L135.257 68.3825L135.088 68.4528L134.922 68.5014L134.873 68.5258C134.801 68.5515 134.73 68.6217 134.707 68.6947C134.634 68.934 134.85 69.1246 135.065 69.0286H135.112L135.28 68.957L135.447 68.9096L135.615 68.861ZM133.462 69.6288C133.773 69.5085 133.678 69.0772 133.342 69.0772C133.319 69.0772 133.294 69.1016 133.271 69.1016L133.104 69.1732L132.936 69.2219L132.768 69.2922L132.744 69.3165C132.433 69.4138 132.529 69.8437 132.84 69.8437C132.863 69.8437 132.913 69.8437 132.936 69.8193L132.983 69.7964L133.151 69.749L133.319 69.6774L133.462 69.6288ZM131.357 70.4438C131.645 70.3235 131.548 69.8924 131.237 69.9153C131.214 69.9153 131.165 69.9153 131.142 69.9153L130.998 69.9883L130.83 70.0613L130.662 70.1316H130.615C130.327 70.2519 130.425 70.6844 130.735 70.6844C130.76 70.6844 130.807 70.6601 130.83 70.6601L130.879 70.6358L131.045 70.5628L131.214 70.4925L131.357 70.4438ZM129.276 71.3076C129.347 71.2832 129.42 71.1873 129.443 71.1156C129.468 70.8737 129.251 70.7074 129.036 70.8047L128.893 70.8737L128.725 70.9237L128.582 70.9967L128.511 71.0197C128.224 71.1629 128.343 71.5711 128.654 71.5468C128.678 71.5468 128.726 71.5468 128.748 71.5238L128.821 71.4982L128.965 71.4265L129.132 71.3792L129.276 71.3076Z" fill="white"/>
<defs>
<linearGradient id="paint0_linear_3631_10050" x1="309.234" y1="0.88662" x2="309.234" y2="126.958" gradientUnits="userSpaceOnUse">
<stop stop-color="#F37022" stop-opacity="0.5"/>
<stop offset="1" stop-color="#FCAF17" stop-opacity="0"/>
</linearGradient>
<linearGradient id="paint1_linear_3631_10050" x1="102.019" y1="67.3763" x2="102.019" y2="126.958" gradientUnits="userSpaceOnUse">
<stop stop-color="#F37022" stop-opacity="0.5"/>
<stop offset="1" stop-color="#FCAF17" stop-opacity="0"/>
</linearGradient>
<linearGradient id="paint2_linear_3631_10050" x1="168.026" y1="126.527" x2="168.026" y2="61.3321" gradientUnits="userSpaceOnUse">
<stop stop-color="#FCAF17" stop-opacity="0"/>
<stop offset="1" stop-color="#F37022" stop-opacity="0.5"/>
</linearGradient>
</defs>
</svg>
