<svg width="277" height="203" viewBox="0 0 277 203" fill="none" xmlns="http://www.w3.org/2000/svg">
<path d="M220.339 106.432C199.395 106.432 169.416 106.113 168.687 106.06C161.665 105.55 169.55 104.706 179.171 103.999C178.974 103.488 178.866 102.951 178.866 102.395C178.866 99.0215 182.74 96.2865 187.516 96.2865C189.192 96.2865 190.751 96.6233 192.077 97.2048C193.006 93.674 197.388 90.9998 202.657 90.9998C207.316 90.9998 211.28 93.0877 212.782 96.01C213.78 95.7259 214.87 95.5679 216.014 95.5679C220.258 95.5679 223.789 97.7294 224.52 100.579C225.064 100.414 225.661 100.322 226.292 100.322C228.765 100.322 230.769 101.738 230.769 103.484C230.769 103.987 230.602 104.463 230.306 104.885C236.065 105.362 240.336 105.802 240.336 106.06C240.336 106.339 231.656 106.432 220.339 106.432Z" fill="#FEEAD1"/>
<path d="M264.955 113.383C265.308 112.876 265.511 112.305 265.511 111.701C265.511 109.603 263.102 107.902 260.131 107.902C259.376 107.902 258.657 108.012 258.005 108.211C257.125 104.788 252.885 102.191 247.785 102.191C246.41 102.191 245.103 102.381 243.902 102.722C242.1 99.2118 237.337 96.7035 231.742 96.7035C225.411 96.7035 220.147 99.916 219.033 104.157C217.44 103.459 215.564 103.054 213.554 103.054C207.814 103.054 203.16 106.34 203.16 110.392C203.16 111.06 203.292 111.705 203.526 112.319C191.97 113.169 182.499 114.182 190.936 114.795C192.279 114.893 277.002 115.749 277.002 114.795C277.002 114.485 271.873 113.956 264.955 113.383Z" fill="#F4F4F4"/>
<path fill-rule="evenodd" clip-rule="evenodd" d="M80.957 117.842L81.6357 127.133C81.2958 127.286 80.9761 127.441 80.6554 127.594C80.2963 127.766 80.1472 128.187 80.3155 128.551C80.486 128.915 80.9197 129.068 81.2585 128.897C81.4279 128.819 81.5792 128.763 81.7497 128.685L82.4093 138.016C82.1077 138.13 81.787 138.245 81.4855 138.36C81.1264 138.514 80.9378 138.935 81.0699 139.299C81.202 139.682 81.6165 139.874 81.9937 139.72C82.1642 139.663 82.3528 139.587 82.5222 139.529L83.201 148.897C82.8994 148.973 82.616 149.069 82.3145 149.147C81.9373 149.262 81.7305 149.663 81.8243 150.047C81.9372 150.43 82.3336 150.66 82.73 150.545C82.9175 150.487 83.1072 150.43 83.3139 150.372L83.9927 159.76C83.7103 159.817 83.4269 159.875 83.1626 159.933C82.7673 160.029 82.5222 160.41 82.5979 160.795C82.6725 161.198 83.0688 161.446 83.446 161.368C83.6538 161.311 83.8797 161.273 84.0875 161.235L84.7662 170.623C84.502 170.66 84.2388 170.699 83.9745 170.737C83.5973 170.794 83.3139 171.158 83.3704 171.561C83.4269 171.943 83.786 172.233 84.1813 172.174C84.4072 172.137 84.6522 172.116 84.8792 172.078L85.5579 181.465L84.8035 181.523C84.4071 181.561 84.1248 181.906 84.144 182.309C84.1813 182.711 84.5212 183.017 84.9165 182.98L87.1232 182.808L87.4247 187.06L87.3502 187.079C86.8025 187.117 86.388 187.595 86.4253 188.152C86.4626 188.726 86.9538 189.148 87.5004 189.11L87.575 189.089L88.3496 199.895H86.4626C85.8787 199.895 85.3885 200.375 85.3885 200.967C85.3885 201.581 85.8787 202.06 86.4626 202.06H118.972C119.557 202.06 120.047 201.581 120.047 200.967C120.047 200.375 119.557 199.895 118.972 199.895H115.2L114.277 187.098H114.352C114.899 187.06 115.313 186.56 115.277 186.006C115.238 185.451 114.766 185.029 114.2 185.066H114.126L113.823 180.795L115.577 180.661C115.974 180.623 116.256 180.278 116.237 179.876C116.198 179.474 115.861 179.186 115.464 179.206L114.805 179.262L114.126 169.856C114.332 169.856 114.541 169.856 114.747 169.856C115.145 169.856 115.464 169.531 115.464 169.128C115.445 168.726 115.124 168.401 114.729 168.401C114.501 168.401 114.257 168.401 114.011 168.419L113.334 159.013C113.54 159.032 113.729 159.051 113.918 159.051C114.314 159.091 114.653 158.783 114.672 158.38C114.71 157.978 114.408 157.634 114.011 157.596C113.748 157.596 113.484 157.576 113.239 157.557L112.56 148.169C112.73 148.208 112.918 148.227 113.088 148.246C113.484 148.304 113.842 148.016 113.899 147.615C113.937 147.23 113.673 146.867 113.278 146.81C112.993 146.77 112.73 146.732 112.447 146.695L111.769 137.345C111.938 137.364 112.089 137.402 112.258 137.442C112.635 137.518 113.013 137.268 113.107 136.885C113.183 136.482 112.938 136.1 112.541 136.023C112.258 135.947 111.956 135.889 111.655 135.831L110.994 126.501C111.126 126.54 111.278 126.579 111.409 126.616C111.787 126.731 112.202 126.521 112.316 126.138C112.428 125.755 112.202 125.334 111.825 125.218C111.524 125.122 111.202 125.045 110.881 124.949L110.203 115.658C110.335 115.696 110.448 115.754 110.581 115.792C110.957 115.944 111.371 115.754 111.505 115.39C111.655 115.007 111.467 114.586 111.108 114.452C109.656 113.857 108.016 113.397 106.281 113.053L106.187 111.712C107.149 111.885 108.092 112.094 109.016 112.344C109.223 112.384 109.411 112.268 109.448 112.076C109.506 111.885 109.394 111.694 109.204 111.635C108.205 111.367 107.186 111.157 106.13 110.966L105.3 99.4509C102.321 98.1874 98.437 97.5545 94.2132 97.8796C90.0076 98.1874 86.2367 99.3743 83.4833 101.08L84.3134 112.593C83.2947 112.938 82.2953 113.321 81.3533 113.723C81.1647 113.799 81.0699 114.01 81.1456 114.202C81.2212 114.394 81.4471 114.47 81.6165 114.393C82.5031 114.01 83.4269 113.666 84.3699 113.339L84.4647 114.681C82.7673 115.294 81.202 116.003 79.8254 116.807C79.4865 117.018 79.3544 117.46 79.5611 117.804C79.7508 118.147 80.2026 118.281 80.5425 118.072C80.6735 117.995 80.8248 117.92 80.957 117.842ZM89.8009 199.895L88.8014 186.236C88.7641 185.603 89.2351 185.047 89.8765 184.989C90.4988 184.953 91.0443 185.43 91.1019 186.063L91.2148 187.787L92.9122 187.653L92.8366 186.466C92.762 185.526 93.4396 184.722 94.3645 184.665C95.2692 184.588 96.0609 185.297 96.1184 186.217L96.2111 187.424L98.3986 187.251L98.3613 186.866C98.2676 185.488 99.2862 184.282 100.644 184.186C102 184.09 103.188 185.124 103.283 186.504L103.32 186.887L105.489 186.715L105.413 185.526C105.338 184.588 106.036 183.783 106.941 183.726C107.847 183.65 108.638 184.358 108.713 185.279L108.79 186.485L110.487 186.35L110.355 184.625C110.318 183.994 110.788 183.44 111.429 183.381C112.051 183.344 112.616 183.823 112.654 184.473L113.767 199.895H111.467L110.637 188.343L108.94 188.478L109.77 199.895H106.451L105.64 188.726L103.452 188.88L104.244 199.895H99.3043L98.5308 189.243L96.3635 189.415L97.1179 199.895H93.7977L93.0625 189.665L91.3661 189.78L92.1013 199.895H89.8009ZM95.1743 123.877L95.6272 123.838L96.08 123.801L96.551 123.762L95.1743 123.877ZM91.0443 115.294C91.6858 115.256 92.2527 115.773 92.3091 116.442L92.8557 124.145C92.0822 124.241 91.3097 124.375 90.5553 124.509C90.5553 124.471 90.5553 124.433 90.5553 124.412C90.3667 121.808 90.1781 119.221 89.9895 116.616C89.933 115.944 90.4231 115.351 91.0443 115.294ZM87.5196 116.099C88.047 116.061 88.4999 116.481 88.5371 117.037L89.104 124.797C88.6693 124.893 88.2356 124.988 87.8019 125.103C87.6133 125.141 87.4247 125.18 87.2361 125.238L86.6512 117.171C86.6139 116.616 87.0102 116.137 87.5196 116.099ZM84.6714 117.018C85.0678 116.98 85.4258 117.325 85.445 117.746L86.0108 125.564C85.5206 125.716 85.0486 125.869 84.5776 126.023L83.9927 117.861C83.9554 117.422 84.2569 117.057 84.6714 117.018ZM82.2761 117.92C82.5595 117.899 82.8238 118.129 82.843 118.415L83.4269 126.426C83.0688 126.559 82.73 126.674 82.3901 126.828L81.8051 118.494C81.7678 118.206 81.9937 117.957 82.2761 117.938V117.92ZM99.8509 114.643C100.492 114.604 101.058 115.102 101.096 115.792C101.284 118.378 101.473 120.984 101.661 123.59C101.661 123.609 101.661 123.646 101.661 123.685C100.907 123.646 100.134 123.646 99.3416 123.646L98.795 115.965C98.7385 115.275 99.2095 114.7 99.8509 114.643ZM103.452 114.911C103.98 114.872 104.434 115.294 104.471 115.85L105.056 123.915C104.848 123.877 104.642 123.858 104.434 123.838C103.999 123.801 103.585 123.781 103.151 123.743L102.585 115.984C102.548 115.428 102.943 114.95 103.452 114.911ZM106.432 115.39C106.828 115.37 107.186 115.696 107.205 116.118L107.808 124.279C107.318 124.203 106.81 124.126 106.319 124.05L105.753 116.233C105.715 115.81 106.017 115.428 106.432 115.39ZM108.921 115.944C109.204 115.926 109.448 116.137 109.468 116.425L110.07 124.759C109.732 124.663 109.374 124.585 109.016 124.509L108.431 116.52C108.412 116.213 108.619 115.965 108.921 115.944ZM96.2686 126.118C97.023 126.06 97.6826 126.636 97.7391 127.402C97.9085 129.911 98.0971 132.44 98.2676 134.95C98.2868 134.969 98.2868 134.989 98.2868 135.026C97.8147 135.047 97.3619 135.085 96.8909 135.104C96.4381 135.142 95.9863 135.181 95.5515 135.218C95.5334 135.199 95.5334 135.181 95.5334 135.142C95.364 132.632 95.1743 130.122 94.9857 127.612C94.9293 126.847 95.5142 126.176 96.2686 126.118ZM91.8755 126.616C92.5169 126.579 93.0625 127.095 93.12 127.766L93.6666 135.428C92.8931 135.524 92.1205 135.64 91.3661 135.774C91.3661 135.755 91.3661 135.737 91.3661 135.717C91.1765 133.13 90.9889 130.524 90.7993 127.939C90.762 127.269 91.234 126.674 91.8755 126.616ZM88.3294 127.325C88.8579 127.286 89.3107 127.709 89.348 128.265L89.9138 136.023C89.5366 136.1 89.1403 136.178 88.7641 136.253C88.518 136.311 88.2729 136.369 88.047 136.425L87.462 128.417C87.4247 127.862 87.8201 127.382 88.3294 127.325ZM85.4641 128.13C85.8786 128.111 86.2175 128.436 86.2559 128.858L86.8206 136.713C86.3304 136.828 85.8595 136.962 85.3693 137.096L84.7843 128.973C84.7662 128.551 85.0678 128.169 85.4641 128.13ZM83.0688 128.935C83.3704 128.915 83.6155 129.125 83.6346 129.414L84.2196 137.422C83.8605 137.537 83.5217 137.652 83.1818 137.766L82.5979 129.489C82.5787 129.203 82.7865 128.954 83.0688 128.935ZM100.681 125.965C101.303 125.927 101.868 126.426 101.926 127.115C102.113 129.701 102.303 132.306 102.472 134.893C102.472 134.912 102.49 134.93 102.49 134.93C101.718 134.93 100.944 134.93 100.153 134.95L99.6059 127.286C99.5494 126.598 100.041 126.023 100.681 125.965ZM104.263 126.157C104.792 126.099 105.244 126.521 105.282 127.077L105.866 135.085C105.603 135.065 105.338 135.047 105.074 135.026C104.697 135.008 104.339 134.989 103.962 134.969L103.396 127.23C103.358 126.674 103.755 126.195 104.263 126.157ZM107.223 126.521C107.639 126.482 107.978 126.808 108.016 127.23L108.601 135.353C108.11 135.295 107.62 135.238 107.11 135.181L106.546 127.345C106.525 126.922 106.828 126.54 107.223 126.521ZM109.712 126.942C109.996 126.922 110.24 127.133 110.26 127.441L110.863 135.679C110.504 135.62 110.165 135.563 109.807 135.507L109.223 127.516C109.204 127.23 109.411 126.962 109.712 126.942ZM97.0795 137.46C97.8339 137.402 98.4935 137.977 98.5499 138.744C98.7385 141.253 98.908 143.783 99.0966 146.292C99.0966 146.292 99.0966 146.311 99.0966 146.33C98.6256 146.368 98.1727 146.388 97.7007 146.427C97.2489 146.465 96.8153 146.502 96.3635 146.54C96.3635 146.522 96.3635 146.502 96.3635 146.484C96.1738 143.974 95.9863 141.463 95.8158 138.954C95.7593 138.188 96.3251 137.518 97.0795 137.46ZM92.6853 137.939C93.3267 137.9 93.8925 138.418 93.9298 139.088L94.4967 146.732C93.7039 146.828 92.9495 146.925 92.176 147.039L91.6293 139.26C91.5728 138.59 92.0438 137.995 92.6853 137.939ZM89.1402 138.571C89.6687 138.533 90.1216 138.954 90.1589 139.509L90.7247 147.251C90.3848 147.307 90.0651 147.365 89.7252 147.422C89.4418 147.48 89.1402 147.537 88.8579 147.594L88.2729 139.644C88.2356 139.088 88.6309 138.61 89.1402 138.571ZM86.274 139.26C86.6703 139.223 87.0283 139.548 87.0656 139.971L87.6314 147.824C87.1424 147.92 86.6512 148.035 86.1802 148.15L85.5963 140.084C85.5579 139.663 85.8595 139.28 86.274 139.26ZM83.8605 139.931C84.1621 139.912 84.4071 140.123 84.4263 140.43L85.0113 148.418C84.6522 148.514 84.3134 148.591 83.9745 148.687L83.3896 140.506C83.3704 140.198 83.5782 139.95 83.8605 139.931ZM101.492 137.288C102.133 137.25 102.68 137.747 102.735 138.437L103.301 146.197C102.529 146.197 101.755 146.215 100.983 146.254L100.417 138.61C100.379 137.92 100.85 137.345 101.492 137.288ZM105.074 137.384C105.603 137.345 106.054 137.766 106.093 138.323L106.677 146.254C106.356 146.234 106.036 146.234 105.715 146.215C105.395 146.215 105.093 146.215 104.773 146.197L104.207 138.456C104.168 137.9 104.565 137.422 105.074 137.384ZM108.035 137.631C108.431 137.594 108.79 137.939 108.826 138.36L109.394 146.406C108.921 146.368 108.412 146.329 107.921 146.311L107.356 138.476C107.318 138.035 107.62 137.671 108.035 137.631ZM110.504 137.939C110.788 137.92 111.033 138.15 111.051 138.437L111.655 146.598C111.297 146.561 110.957 146.54 110.599 146.502L110.015 138.514C109.996 138.226 110.222 137.959 110.504 137.939ZM97.9085 148.802C98.6629 148.744 99.3235 149.338 99.3608 150.104C99.5494 152.594 99.738 155.104 99.9074 157.614C99.9074 157.634 99.9074 157.634 99.9074 157.652C99.4546 157.673 98.9836 157.709 98.5127 157.748C98.079 157.768 97.6261 157.805 97.1733 157.844V157.826C97.0039 155.315 96.8152 152.805 96.6266 150.296C96.5702 149.529 97.1541 148.859 97.9085 148.802ZM93.5164 149.262C94.1376 149.224 94.7034 149.739 94.7599 150.411L95.3065 158.016C94.534 158.112 93.7614 158.19 92.9868 158.285L92.4402 150.584C92.3837 149.914 92.8749 149.319 93.5164 149.262ZM89.9511 149.817C90.4796 149.779 90.9314 150.182 90.9698 150.736L91.5356 158.476C91.2521 158.515 90.9698 158.554 90.7066 158.592C90.3475 158.648 90.0076 158.688 89.6496 158.744L89.0838 150.889C89.0465 150.334 89.4418 149.856 89.9511 149.817ZM87.0656 150.372C87.4812 150.354 87.8392 150.679 87.8584 151.1L88.4242 158.937C87.9341 159.013 87.462 159.109 86.9719 159.184L86.388 151.196C86.3688 150.775 86.6703 150.411 87.0656 150.372ZM84.6714 150.928C84.9548 150.909 85.1999 151.138 85.2191 151.426L85.803 159.396C85.445 159.472 85.1061 159.53 84.7662 159.607L84.1813 151.503C84.1621 151.216 84.3699 150.947 84.6714 150.928ZM102.303 148.61C102.943 148.572 103.509 149.069 103.547 149.739L104.112 157.461C103.339 157.48 102.566 157.5 101.793 157.538L101.247 149.914C101.189 149.241 101.68 148.648 102.303 148.61ZM105.904 148.629C106.414 148.591 106.865 148.993 106.904 149.549L107.488 157.404C107.11 157.404 106.733 157.404 106.356 157.404C106.093 157.404 105.848 157.423 105.584 157.423L105.018 149.702C104.979 149.147 105.376 148.667 105.904 148.629ZM108.826 148.744C109.24 148.725 109.6 149.051 109.618 149.471L110.203 157.441C109.712 157.423 109.223 157.423 108.713 157.404L108.148 149.587C108.128 149.164 108.431 148.783 108.826 148.744ZM111.297 148.955C111.579 148.917 111.825 149.147 111.863 149.433L112.447 157.519C112.089 157.5 111.731 157.48 111.392 157.48L110.807 149.51C110.788 149.224 111.015 148.973 111.297 148.955ZM98.7194 160.143C99.4748 160.105 100.134 160.678 100.19 161.446L100.737 168.955C100.265 168.995 99.7945 169.012 99.3235 169.051C98.8898 169.09 98.437 169.128 98.0033 169.167L97.4556 161.638C97.3992 160.871 97.965 160.201 98.7194 160.143ZM94.3262 160.583C94.9676 160.545 95.5142 161.063 95.5707 161.733L96.1184 169.319C95.3438 169.397 94.5713 169.472 93.7977 169.531L93.2511 161.906C93.2138 161.235 93.6847 160.641 94.3262 160.583ZM90.7812 161.043C91.2905 161.005 91.7433 161.427 91.7806 161.982L92.3454 169.683C92.1205 169.721 91.8936 169.741 91.6677 169.76C91.2724 169.798 90.8568 169.856 90.4604 169.895L89.8946 162.116C89.8573 161.562 90.2527 161.082 90.7812 161.043ZM87.8776 161.484C88.2729 161.465 88.6309 161.79 88.6693 162.212L89.2351 170.048C88.7449 170.105 88.2548 170.162 87.7646 170.22L87.1988 162.327C87.1605 161.906 87.4812 161.523 87.8776 161.484ZM85.4641 161.925C85.7476 161.906 85.9916 162.136 86.0108 162.423L86.5958 170.373C86.2367 170.412 85.8978 170.469 85.5579 170.508L84.973 162.5C84.9548 162.212 85.1807 161.963 85.4641 161.925ZM103.133 159.933C103.755 159.894 104.32 160.393 104.376 161.063L104.923 168.707C104.15 168.744 103.377 168.784 102.603 168.841L102.058 161.235C102 160.565 102.49 159.971 103.133 159.933ZM106.715 159.855C107.223 159.817 107.676 160.239 107.714 160.795L108.279 168.553C107.865 168.573 107.432 168.591 106.997 168.612C106.791 168.612 106.583 168.63 106.394 168.63L105.829 160.929C105.791 160.374 106.187 159.894 106.715 159.855ZM109.638 159.875C110.033 159.836 110.391 160.162 110.43 160.583L110.994 168.477C110.504 168.477 110.015 168.496 109.526 168.514L108.959 160.699C108.921 160.276 109.223 159.894 109.638 159.875ZM112.089 159.951C112.371 159.933 112.635 160.143 112.654 160.43L113.22 168.419C112.88 168.419 112.523 168.439 112.184 168.439L111.598 160.507C111.579 160.22 111.806 159.971 112.089 159.951ZM99.5313 171.505C100.286 171.447 100.944 172.021 101.002 172.787L101.548 180.258L98.8142 180.47L98.2676 172.997C98.21 172.233 98.795 171.561 99.5313 171.505ZM95.137 171.906C95.7785 171.868 96.3432 172.385 96.3816 173.055L96.9282 180.604L94.6277 180.795L94.0811 173.227C94.0246 172.538 94.5148 171.964 95.137 171.906ZM91.592 172.289C92.1013 172.25 92.5542 172.671 92.6107 173.209L93.1573 180.89L91.2724 181.045L90.7066 173.361C90.6682 172.806 91.0635 172.327 91.592 172.289ZM88.6693 172.614C89.0838 172.576 89.4418 172.903 89.461 173.325L90.0268 181.14L88.5563 181.235L88.0097 173.439C87.9714 173.018 88.2729 172.635 88.6693 172.614ZM86.2559 172.94C86.5382 172.921 86.7833 173.132 86.8206 173.419L87.3864 181.33L86.3507 181.408L85.7657 173.495C85.7476 173.209 85.9724 172.96 86.2559 172.94ZM103.943 171.254C104.584 171.198 105.132 171.714 105.187 172.385L105.734 179.952L103.415 180.124L102.867 172.557C102.831 171.886 103.301 171.312 103.943 171.254ZM107.526 171.101C108.035 171.063 108.487 171.483 108.544 172.021L109.09 179.684L107.205 179.838L106.641 172.174C106.601 171.618 106.997 171.14 107.526 171.101ZM110.43 170.985C110.845 170.968 111.202 171.274 111.222 171.714L111.787 179.491L110.318 179.587L109.77 171.812C109.732 171.389 110.033 171.024 110.43 170.985ZM112.88 170.948C113.164 170.929 113.428 171.14 113.446 171.447L114.011 179.32L112.976 179.396L112.409 171.521C112.371 171.235 112.598 170.968 112.88 170.948ZM95.4386 114.661C96.193 114.604 96.8526 115.198 96.909 115.944C97.0795 118.474 97.2681 120.984 97.4556 123.494C97.4556 123.532 97.4556 123.551 97.4556 123.57C96.9847 123.609 96.5318 123.627 96.0609 123.666C95.608 123.705 95.1743 123.743 94.7226 123.781C94.7226 123.762 94.7226 123.725 94.7034 123.705C94.534 121.194 94.3443 118.666 94.1749 116.157C94.1195 115.39 94.6853 114.72 95.4386 114.661ZM110.524 186.829L110.562 187.386L108.863 187.499L108.826 186.964L110.524 186.829ZM105.527 187.213L105.564 187.75L103.396 187.922L103.339 187.365L105.527 187.213ZM98.437 187.73L98.4754 188.286L96.2868 188.438L96.2495 187.902L98.437 187.73ZM92.9495 188.152L92.9868 188.688L91.2905 188.822L91.2521 188.266L92.9495 188.152ZM105.3 97.3245C105.489 97.3817 105.584 97.5934 105.527 97.7835C105.469 97.9757 105.264 98.0718 105.074 98.0146C103.377 97.4195 101.605 97.0188 99.7561 96.7877C97.9277 96.5577 96.0236 96.5199 94.1376 96.6549C92.2335 96.7877 90.3475 97.1322 88.5563 97.6301C86.7652 98.129 85.0678 98.7997 83.4652 99.6421C83.2948 99.7188 83.088 99.6615 82.9932 99.4898C82.8994 99.2976 82.9751 99.087 83.1445 98.9909C84.7844 98.129 86.5382 97.44 88.3677 96.9227C90.2153 96.4043 92.1386 96.0792 94.0811 95.9259C96.0236 95.792 97.965 95.8298 99.8509 96.0598C101.737 96.3093 103.565 96.7305 105.3 97.3245Z" fill="url(#paint0_linear_3631_10051)"/>
<path fill-rule="evenodd" clip-rule="evenodd" d="M160.907 168.164H132.106C131.213 168.164 130.52 168.882 130.52 169.747C130.52 170.639 131.213 171.33 132.106 171.33H160.907C161.803 171.33 162.496 170.639 162.496 169.747C162.496 168.882 161.803 168.164 160.907 168.164ZM172.077 125.783C172.336 125.783 172.509 125.955 172.509 126.185V130.328C172.509 130.558 172.336 130.761 172.077 130.761C171.845 130.761 171.672 130.558 171.672 130.328V126.185C171.672 125.955 171.845 125.783 172.077 125.783ZM169.826 125.783C170.056 125.783 170.258 125.955 170.258 126.185V130.328C170.258 130.558 170.056 130.761 169.826 130.761C169.595 130.761 169.392 130.558 169.392 130.328V126.185C169.392 125.955 169.595 125.783 169.826 125.783ZM170.981 125.783C171.211 125.783 171.413 125.955 171.413 126.185V130.328C171.413 130.558 171.211 130.761 170.981 130.761C170.749 130.761 170.547 130.558 170.547 130.328V126.185C170.547 125.955 170.749 125.783 170.981 125.783ZM181.052 168.164H209.853C210.749 168.164 211.44 168.882 211.44 169.747C211.44 170.639 210.749 171.33 209.853 171.33H181.052C180.157 171.33 179.464 170.639 179.464 169.747C179.464 168.882 180.157 168.164 181.052 168.164ZM170.981 142.125H209.045C210.199 142.125 211.153 141.176 211.153 139.995V138.845H212.481C212.883 138.845 213.172 138.529 213.172 138.154V136.054H170.981H128.788V138.154C128.788 138.529 129.076 138.845 129.481 138.845H130.808V139.995C130.808 141.176 131.761 142.125 132.915 142.125H170.981ZM209.738 121.754H132.222C131.672 121.754 131.24 122.216 131.24 122.761C131.24 123.308 131.672 123.739 132.222 123.739H170.981H209.738C210.286 123.739 210.719 123.308 210.719 122.761C210.719 122.216 210.286 121.754 209.738 121.754ZM209.363 124.717H132.597V131.796H170.981H209.363V124.717ZM203.215 125.783C203.446 125.783 203.619 125.955 203.619 126.185C203.619 127.566 203.619 128.948 203.619 130.328C203.619 130.558 203.446 130.761 203.215 130.761C202.955 130.761 202.784 130.558 202.784 130.328C202.784 128.948 202.784 127.566 202.784 126.185C202.784 125.955 202.955 125.783 203.215 125.783ZM206.391 125.783C206.621 125.783 206.794 125.955 206.794 126.185V130.328C206.794 130.558 206.621 130.761 206.391 130.761C206.16 130.761 205.958 130.558 205.958 130.328V126.185C205.958 125.955 206.16 125.783 206.391 125.783ZM174.645 125.783C174.877 125.783 175.049 125.955 175.049 126.185C175.049 127.566 175.049 128.948 175.049 130.328C175.049 130.558 174.877 130.761 174.645 130.761C174.386 130.761 174.211 130.558 174.211 130.328C174.211 128.948 174.211 127.566 174.211 126.185C174.211 125.955 174.386 125.783 174.645 125.783ZM177.82 125.783C178.05 125.783 178.223 125.955 178.223 126.185C178.223 127.566 178.223 128.948 178.223 130.328C178.223 130.558 178.05 130.761 177.82 130.761C177.589 130.761 177.388 130.558 177.388 130.328C177.388 128.948 177.388 127.566 177.388 126.185C177.388 125.955 177.589 125.783 177.82 125.783ZM180.994 125.783C181.225 125.783 181.4 125.955 181.4 126.185C181.4 127.566 181.4 128.948 181.4 130.328C181.4 130.558 181.225 130.761 180.994 130.761C180.764 130.761 180.561 130.558 180.561 130.328C180.561 128.948 180.561 127.566 180.561 126.185C180.561 125.955 180.764 125.783 180.994 125.783ZM184.169 125.783C184.399 125.783 184.572 125.955 184.572 126.185C184.572 127.566 184.572 128.948 184.572 130.328C184.572 130.558 184.399 130.761 184.169 130.761C183.937 130.761 183.735 130.558 183.735 130.328C183.735 128.948 183.735 127.566 183.735 126.185C183.735 125.955 183.909 125.783 184.169 125.783ZM187.342 125.783C187.574 125.783 187.747 125.955 187.747 126.185C187.747 127.566 187.747 128.948 187.747 130.328C187.747 130.558 187.574 130.761 187.342 130.761C187.083 130.761 186.91 130.558 186.91 130.328C186.91 128.948 186.91 127.566 186.91 126.185C186.91 125.955 187.083 125.783 187.342 125.783ZM190.519 125.783C190.749 125.783 190.922 125.955 190.922 126.185C190.922 127.566 190.922 128.948 190.922 130.328C190.922 130.558 190.749 130.761 190.519 130.761C190.258 130.761 190.085 130.558 190.085 130.328C190.085 128.948 190.085 127.566 190.085 126.185C190.085 125.955 190.258 125.783 190.519 125.783ZM193.692 125.783C193.922 125.783 194.095 125.955 194.095 126.185C194.095 127.566 194.095 128.948 194.095 130.328C194.095 130.558 193.922 130.761 193.692 130.761C193.432 130.761 193.259 130.558 193.259 130.328C193.259 128.948 193.259 127.566 193.259 126.185C193.259 125.955 193.432 125.783 193.692 125.783ZM196.866 125.783C197.098 125.783 197.27 125.955 197.27 126.185C197.27 127.566 197.27 128.948 197.27 130.328C197.27 130.558 197.098 130.761 196.866 130.761C196.608 130.761 196.434 130.558 196.434 130.328C196.434 128.948 196.434 127.566 196.434 126.185C196.434 125.955 196.608 125.783 196.866 125.783ZM200.041 125.783C200.273 125.783 200.445 125.955 200.445 126.185C200.445 127.566 200.445 128.948 200.445 130.328C200.445 130.558 200.273 130.761 200.041 130.761C199.78 130.761 199.609 130.558 199.609 130.328C199.609 128.948 199.609 127.566 199.609 126.185C199.609 125.955 199.78 125.783 200.041 125.783ZM213.172 135.134H213.663C214.182 135.019 214.588 134.529 214.588 133.982C214.588 133.321 214.067 132.803 213.404 132.803H170.981H128.558C127.892 132.803 127.374 133.321 127.374 133.982C127.374 134.529 127.778 135.019 128.297 135.134H128.788H170.981H213.172ZM206.505 154.842H187.083C186.853 154.842 186.68 155.015 186.68 155.217V164.511C186.68 164.712 186.853 164.884 187.083 164.884H206.505C206.708 164.884 206.881 164.712 206.881 164.511V155.217C206.881 155.015 206.708 154.842 206.505 154.842ZM205.928 155.792V163.964H187.631V155.792H205.928ZM170.981 149.26H209.219V143.794H206.851V145.089C206.851 145.434 206.563 145.723 206.246 145.723H204.63C204.283 145.723 203.994 145.434 203.994 145.089V143.794H201.916V145.089C201.916 145.434 201.628 145.723 201.282 145.723C200.734 145.723 200.214 145.723 199.666 145.723C199.32 145.723 199.032 145.434 199.032 145.089V143.794H196.954V145.089C196.954 145.434 196.665 145.723 196.347 145.723C195.799 145.723 195.25 145.723 194.731 145.723C194.384 145.723 194.095 145.434 194.095 145.089V143.794H192.018V145.089C192.018 145.434 191.729 145.723 191.383 145.723C190.835 145.723 190.315 145.723 189.767 145.723C189.42 145.723 189.133 145.434 189.133 145.089V143.794H187.054V145.089C187.054 145.434 186.767 145.723 186.449 145.723C185.899 145.723 185.351 145.723 184.803 145.723C184.487 145.723 184.196 145.434 184.196 145.089V143.794H182.119V145.089C182.119 145.434 181.83 145.723 181.484 145.723C180.937 145.723 180.416 145.723 179.87 145.723C179.523 145.723 179.234 145.434 179.234 145.089V143.794H177.155V145.089C177.155 145.434 176.868 145.723 176.52 145.723C176 145.723 175.452 145.723 174.904 145.723C174.586 145.723 174.298 145.434 174.298 145.089V143.794H172.222V145.089C172.222 145.434 171.931 145.723 171.586 145.723H170.981H170.374C170.027 145.723 169.74 145.434 169.74 145.089V143.794H167.662V145.089C167.662 145.434 167.372 145.723 167.055 145.723C166.507 145.723 165.958 145.723 165.439 145.723C165.092 145.723 164.803 145.434 164.803 145.089V143.794H162.726V145.089C162.726 145.434 162.437 145.723 162.091 145.723C161.543 145.723 161.023 145.723 160.475 145.723C160.13 145.723 159.841 145.434 159.841 145.089V143.794H157.762V145.089C157.762 145.434 157.475 145.723 157.157 145.723C156.607 145.723 156.059 145.723 155.511 145.723C155.195 145.723 154.904 145.434 154.904 145.089V143.794H152.827V145.089C152.827 145.434 152.538 145.723 152.193 145.723C151.645 145.723 151.124 145.723 150.576 145.723C150.229 145.723 149.94 145.434 149.94 145.089V143.794H147.864V145.089C147.864 145.434 147.576 145.723 147.228 145.723C146.71 145.723 146.16 145.723 145.612 145.723C145.294 145.723 145.006 145.434 145.006 145.089V143.794H142.928V145.089C142.928 145.434 142.639 145.723 142.294 145.723C141.746 145.723 141.226 145.723 140.678 145.723C140.332 145.723 140.043 145.434 140.043 145.089V143.794H137.964V145.089C137.964 145.434 137.675 145.723 137.33 145.723H135.714C135.397 145.723 135.109 145.434 135.109 145.089V143.794H132.741V149.26H170.981ZM170.981 151.562H209.219V150.211H170.981H132.741V151.562H170.981ZM170.981 152.511H183.419V163.187C181.6 158.727 177.445 155.447 172.509 154.9V153.663C172.509 153.405 172.336 153.231 172.077 153.231C171.845 153.231 171.672 153.405 171.672 153.663V154.814C171.586 154.814 171.499 154.814 171.413 154.814V153.663C171.413 153.405 171.211 153.231 170.981 153.231C170.749 153.231 170.547 153.405 170.547 153.663V154.814C170.46 154.814 170.345 154.814 170.258 154.814V153.663C170.258 153.405 170.056 153.231 169.826 153.231C169.595 153.231 169.392 153.405 169.392 153.663V154.9C164.485 155.476 160.359 158.756 158.541 163.187V152.511H170.981ZM171.413 155.763V156.886C171.413 157.116 171.211 157.29 170.981 157.29C170.749 157.29 170.547 157.116 170.547 156.886V155.763C170.46 155.763 170.345 155.763 170.258 155.763V156.886C170.258 157.116 170.056 157.29 169.826 157.29C169.595 157.29 169.392 157.116 169.392 156.886V155.849C163.592 156.569 159.004 161.345 158.541 167.244H159.898H159.927H160.332C160.793 161.805 165.41 157.489 170.981 157.489C176.55 157.489 181.166 161.805 181.63 167.244H182.032H182.062H183.419C182.957 161.345 178.34 156.569 172.509 155.849V156.886C172.509 157.116 172.336 157.29 172.077 157.29C171.845 157.29 171.672 157.116 171.672 156.886V155.763C171.586 155.763 171.499 155.763 171.413 155.763ZM184.342 167.244C184.342 167.158 184.342 167.07 184.342 166.984V152.511H209.219V167.244H208.873H208.844H184.342ZM181.687 172.279V173.431H209.219V172.279H208.873H208.844H184.399H183.446H182.062H181.687ZM181.687 174.379V202.06H183.446V174.379H181.687ZM184.399 202.06H190.749V193.917H184.399V202.06ZM190.749 192.996V186.147C190.749 182.809 193.461 180.076 196.809 180.076C200.155 180.076 202.87 182.809 202.87 186.147V192.996H209.219V174.379H184.399V192.996H190.749ZM202.87 193.917V202.06H209.219V193.917H202.87ZM191.672 202.06H201.946V193.917H191.672V202.06ZM201.946 192.996H191.672V186.147C191.672 183.328 193.981 181.027 196.809 181.027C199.638 181.027 201.946 183.328 201.946 186.147V192.996ZM138.744 125.783C139.004 125.783 139.177 125.955 139.177 126.185C139.177 127.566 139.177 128.948 139.177 130.328C139.177 130.558 139.004 130.761 138.744 130.761C138.514 130.761 138.339 130.558 138.339 130.328C138.339 128.948 138.339 127.566 138.339 126.185C138.339 125.955 138.514 125.783 138.744 125.783ZM135.568 125.783C135.829 125.783 136.002 125.955 136.002 126.185V130.328C136.002 130.558 135.829 130.761 135.568 130.761C135.338 130.761 135.166 130.558 135.166 130.328V126.185C135.166 125.955 135.338 125.783 135.568 125.783ZM167.315 125.783C167.574 125.783 167.747 125.955 167.747 126.185C167.747 127.566 167.747 128.948 167.747 130.328C167.747 130.558 167.574 130.761 167.315 130.761C167.085 130.761 166.91 130.558 166.91 130.328C166.91 128.948 166.91 127.566 166.91 126.185C166.91 125.955 167.085 125.783 167.315 125.783ZM164.14 125.783C164.401 125.783 164.573 125.955 164.573 126.185C164.573 127.566 164.573 128.948 164.573 130.328C164.573 130.558 164.401 130.761 164.14 130.761C163.91 130.761 163.735 130.558 163.735 130.328C163.735 128.948 163.735 127.566 163.735 126.185C163.735 125.955 163.91 125.783 164.14 125.783ZM160.966 125.783C161.225 125.783 161.398 125.955 161.398 126.185C161.398 127.566 161.398 128.948 161.398 130.328C161.398 130.558 161.225 130.761 160.966 130.761C160.735 130.761 160.562 130.558 160.562 130.328C160.562 128.948 160.562 127.566 160.562 126.185C160.562 125.955 160.735 125.783 160.966 125.783ZM157.791 125.783C158.05 125.783 158.225 125.955 158.225 126.185C158.225 127.566 158.225 128.948 158.225 130.328C158.225 130.558 158.05 130.761 157.791 130.761C157.559 130.761 157.387 130.558 157.387 130.328C157.387 128.948 157.387 127.566 157.387 126.185C157.387 125.955 157.559 125.783 157.791 125.783ZM154.617 125.783C154.847 125.783 155.05 125.955 155.05 126.185C155.05 127.566 155.05 128.948 155.05 130.328C155.05 130.558 154.847 130.761 154.617 130.761C154.386 130.761 154.213 130.558 154.213 130.328C154.213 128.948 154.213 127.566 154.213 126.185C154.213 125.955 154.386 125.783 154.617 125.783ZM151.442 125.783C151.702 125.783 151.875 125.955 151.875 126.185C151.875 127.566 151.875 128.948 151.875 130.328C151.875 130.558 151.672 130.761 151.442 130.761C151.211 130.761 151.038 130.558 151.038 130.328C151.038 128.948 151.038 127.566 151.038 126.185C151.038 125.955 151.211 125.783 151.442 125.783ZM148.267 125.783C148.528 125.783 148.699 125.955 148.699 126.185C148.699 127.566 148.699 128.948 148.699 130.328C148.699 130.558 148.528 130.761 148.267 130.761C148.037 130.761 147.864 130.558 147.864 130.328C147.864 128.948 147.864 127.566 147.864 126.185C147.864 125.955 148.037 125.783 148.267 125.783ZM145.094 125.783C145.353 125.783 145.526 125.955 145.526 126.185C145.526 127.566 145.526 128.948 145.526 130.328C145.526 130.558 145.353 130.761 145.094 130.761C144.862 130.761 144.689 130.558 144.689 130.328C144.689 128.948 144.689 127.566 144.689 126.185C144.689 125.955 144.862 125.783 145.094 125.783ZM141.919 125.783C142.178 125.783 142.352 125.955 142.352 126.185C142.352 127.566 142.352 128.948 142.352 130.328C142.352 130.558 142.178 130.761 141.919 130.761C141.687 130.761 141.514 130.558 141.514 130.328C141.514 128.948 141.514 127.566 141.514 126.185C141.514 125.955 141.687 125.783 141.919 125.783ZM135.454 154.842H154.877C155.107 154.842 155.28 155.015 155.28 155.217V164.511C155.28 164.712 155.107 164.884 154.877 164.884H135.454C135.252 164.884 135.079 164.712 135.079 164.511V155.217C135.079 155.015 135.252 154.842 135.454 154.842ZM136.032 155.792V163.964H154.329V155.792H136.032ZM157.618 167.244C157.618 167.158 157.618 167.07 157.618 166.984V152.511H132.741V167.244H133.088H133.117H157.618ZM160.273 172.279V173.431H132.741V172.279H133.088H133.117H157.559H158.513H159.898H160.273ZM160.273 174.379V202.06H158.513V174.379H160.273ZM157.559 202.06H151.211V193.917H157.559V202.06ZM151.211 192.996V186.147C151.211 182.809 148.499 180.076 145.151 180.076C141.803 180.076 139.091 182.809 139.091 186.147V192.996H132.741V174.379H157.559V192.996H151.211ZM139.091 193.917V202.06H132.741V193.917H139.091ZM150.288 202.06H140.014V193.917H150.288V202.06ZM140.014 192.996H150.288V186.147C150.288 183.328 147.979 181.027 145.151 181.027C142.323 181.027 140.014 183.328 140.014 186.147V192.996Z" fill="url(#paint1_linear_3631_10051)"/>
<path fill-rule="evenodd" clip-rule="evenodd" d="M10.5939 181.838L0 201.978H13.6995C16.2419 194.368 25.2808 188.74 36.0857 188.74C46.8893 188.74 55.9275 194.368 58.4347 201.978H72.135L61.5762 181.838V173.273C61.5762 172.212 60.694 171.328 59.6349 171.328H57.3046C55.1855 166.372 53.3502 160.887 51.9729 155.012C50.6326 149.244 49.7847 143.546 49.4307 138.095C50.3489 137.849 51.0199 136.999 51.0199 136.008C51.0199 134.805 50.0676 133.847 48.8657 133.847H46.9944C44.453 117.321 40.7815 72.1968 39.8977 32.2757C40.6389 32.17 41.2055 31.5675 41.2055 30.7894V28.5249C41.2055 27.8525 40.7815 27.3218 40.1806 27.1104V23.8522C40.1806 22.5075 39.1916 21.4102 37.9213 21.2346V15.9614C37.9213 15.3588 37.4622 14.8641 36.8964 14.7943V0.495026C36.8964 0.211716 36.6508 0.000137329 36.3673 0.000137329H35.8022C35.5207 0.000137329 35.2729 0.211716 35.2729 0.495026V14.7943C34.7071 14.8641 34.2482 15.3588 34.2482 15.9614V21.2346C32.9785 21.4102 31.9538 22.5075 31.9538 23.8522V27.1104C31.3885 27.3218 30.9654 27.8525 30.9654 28.5249V30.7894C30.9654 31.5675 31.5304 32.17 32.2716 32.2757C31.3528 72.1968 27.7187 117.321 25.1405 133.847H23.3044C22.1041 133.847 21.1502 134.805 21.1502 136.008C21.1502 136.999 21.8212 137.849 22.7394 138.095C22.3505 143.546 21.5391 149.244 20.1612 155.012C18.7842 160.887 16.9837 166.372 14.8647 171.328H12.5344C11.4753 171.328 10.5939 172.212 10.5939 173.273V181.838ZM44.559 171.328H27.6111C29.0941 164.604 31.2126 153.314 31.4253 147.935H36.0857H40.7464C40.9218 153.314 43.076 164.604 44.559 171.328Z" fill="url(#paint2_linear_3631_10051)"/>
<path fill-rule="evenodd" clip-rule="evenodd" d="M39.897 33.1616C39.897 32.8424 39.897 32.559 39.897 32.2757H32.2709C32.2709 32.559 32.2709 32.8424 32.2366 33.1616H39.897Z" fill="white"/>
<path fill-rule="evenodd" clip-rule="evenodd" d="M61.5754 181.838V180.105H10.593V181.838H61.5754Z" fill="white"/>
<path fill-rule="evenodd" clip-rule="evenodd" d="M8.68441 185.448L8.11938 186.545H64.0477L63.4827 185.448H8.68441Z" fill="white"/>
<path fill-rule="evenodd" clip-rule="evenodd" d="M9.07617 201.978H10.9815L20.9388 181.661L19.3847 180.883L9.07617 201.978Z" fill="#F4F0D8"/>
<path fill-rule="evenodd" clip-rule="evenodd" d="M36.3407 185.519C43.5093 185.519 50.0402 187.678 54.7709 191.148C57.7371 193.34 59.9972 196.066 61.2683 199.108H60.2793C59.0433 196.349 56.9594 193.907 54.2067 191.89C49.6514 188.528 43.3315 186.439 36.3407 186.439C29.3499 186.439 22.9941 188.528 18.4412 191.89C15.722 193.907 13.6029 196.349 12.3669 199.108H11.3779C12.649 196.066 14.9435 193.34 17.9097 191.148C22.6069 187.678 29.137 185.519 36.3407 185.519Z" fill="white"/>
<path fill-rule="evenodd" clip-rule="evenodd" d="M61.6462 201.978H63.5531L53.2422 180.883L51.689 181.661L61.6462 201.978Z" fill="white"/>
<path fill-rule="evenodd" clip-rule="evenodd" d="M49.609 140.217C49.5374 139.511 49.5039 138.803 49.432 138.095H22.7407C22.6691 138.803 22.6332 139.511 22.5637 140.217H49.609Z" fill="white"/>
<path fill-rule="evenodd" clip-rule="evenodd" d="M50.2845 146.023C50.2493 145.668 50.1793 145.317 50.1442 144.962H22.0375C22.0032 145.317 21.9323 145.668 21.8972 146.023H50.2845Z" fill="white"/>
<path fill-rule="evenodd" clip-rule="evenodd" d="M40.0741 39.46C40.0741 39.1407 40.0741 38.8594 40.039 38.5761H32.0935C32.0935 38.8594 32.0935 39.1407 32.0935 39.46H40.0741Z" fill="white"/>
<path fill-rule="evenodd" clip-rule="evenodd" d="M40.2872 45.7251C40.2872 45.4418 40.2521 45.1585 40.2521 44.8393H31.9185C31.885 45.1585 31.885 45.4418 31.885 45.7251H40.2872Z" fill="#F4F0D8"/>
<path fill-rule="evenodd" clip-rule="evenodd" d="M40.5335 52.0234C40.5335 51.7401 40.4986 51.4589 40.4986 51.1396H31.6715C31.6357 51.4589 31.6357 51.7401 31.6357 52.0234H40.5335Z" fill="#F4F0D8"/>
<path fill-rule="evenodd" clip-rule="evenodd" d="M40.8213 58.3242L40.7864 57.4384H31.3934L31.3577 58.3242H40.8213Z" fill="white"/>
<path fill-rule="evenodd" clip-rule="evenodd" d="M41.1369 64.623C41.101 64.3417 41.101 64.0205 41.0661 63.7392H31.0739C31.0739 64.0205 31.0388 64.3417 31.0388 64.623H41.1369Z" fill="#F4F0D8"/>
<path fill-rule="evenodd" clip-rule="evenodd" d="M41.4916 70.9219L41.4214 70.038H30.7591L30.6873 70.9219H41.4916Z" fill="white"/>
<path fill-rule="evenodd" clip-rule="evenodd" d="M41.841 77.2227L41.8061 76.3029H30.3673L30.3315 77.2227H41.841Z" fill="white"/>
<path fill-rule="evenodd" clip-rule="evenodd" d="M42.2644 83.4854L42.1928 82.6015H29.9771L29.9062 83.4854H42.2644Z" fill="white"/>
<path fill-rule="evenodd" clip-rule="evenodd" d="M42.6832 89.7856C42.6483 89.5023 42.6483 89.1852 42.6123 88.9019H29.5487C29.513 89.1852 29.513 89.5023 29.4771 89.7856H42.6832Z" fill="#F4F0D8"/>
<path fill-rule="evenodd" clip-rule="evenodd" d="M43.1459 96.0869C43.1108 95.8036 43.1108 95.4844 43.0751 95.2031H29.0932C29.0583 95.4844 29.0232 95.8036 29.0232 96.0869H43.1459Z" fill="white"/>
<path fill-rule="evenodd" clip-rule="evenodd" d="M43.6377 102.385C43.6377 102.066 43.6026 101.785 43.5667 101.501H28.5968C28.5617 101.785 28.5266 102.066 28.4917 102.385H43.6377Z" fill="white"/>
<path fill-rule="evenodd" clip-rule="evenodd" d="M44.2069 108.686L44.1008 107.766H28.036L27.9644 108.686H44.2069Z" fill="white"/>
<path fill-rule="evenodd" clip-rule="evenodd" d="M44.772 114.949C44.772 114.665 44.7368 114.384 44.7025 114.063H27.4726C27.4375 114.384 27.4023 114.665 27.3674 114.949H44.772Z" fill="white"/>
<path fill-rule="evenodd" clip-rule="evenodd" d="M45.4395 121.25C45.4028 120.964 45.3693 120.647 45.332 120.364H26.8307C26.7972 120.647 26.7615 120.964 26.7256 121.25H45.4395Z" fill="white"/>
<path fill-rule="evenodd" clip-rule="evenodd" d="M46.1478 127.548C46.1135 127.265 46.0777 126.947 46.0426 126.664H26.1284C26.0927 126.947 26.0592 127.265 26.0225 127.548H46.1478Z" fill="#F4F0D8"/>
<path fill-rule="evenodd" clip-rule="evenodd" d="M46.9972 133.847C46.9621 133.565 46.9264 133.246 46.8921 132.963H25.2836C25.2485 133.246 25.2127 133.565 25.1433 133.847H46.9972Z" fill="white"/>
<path fill-rule="evenodd" clip-rule="evenodd" d="M30.6467 133.212C30.6108 133.458 30.787 133.671 31.0356 133.707C31.2826 133.741 31.4947 133.566 31.5296 133.318C32.5529 125.709 33.2241 118.841 33.7548 112.154C34.2831 105.5 34.672 99.0235 35.0251 92.1223L35.0602 91.3801C35.6604 79.8421 36.3313 67.2068 36.5432 51.6007C36.5432 51.3513 36.3313 51.1398 36.0849 51.1398C35.8363 51.1398 35.626 51.3513 35.626 51.6007C35.4132 67.135 34.7422 79.8062 34.1772 91.3083L34.1069 92.0864C33.7548 98.9178 33.4009 105.394 32.8709 112.084C32.3418 118.772 31.6349 125.637 30.6467 133.212Z" fill="white"/>
<path fill-rule="evenodd" clip-rule="evenodd" d="M40.6419 133.318C40.6776 133.566 40.8897 133.741 41.1375 133.707C41.3839 133.671 41.5607 133.458 41.5256 133.212C40.5366 125.637 39.8305 118.772 39.3006 112.084C38.7707 105.394 38.3826 98.9178 38.0295 92.0864L37.9943 91.3083C37.395 79.8062 36.7591 67.135 36.5471 51.6007C36.5471 51.3174 36.3352 51.1398 36.0888 51.1398C35.8402 51.1398 35.6299 51.3513 35.6299 51.6007C35.8402 67.2068 36.5113 79.8421 37.1121 91.3801L37.1472 92.1223C37.5003 99.0235 37.8541 105.5 38.3826 112.154C38.9133 118.841 39.6194 125.709 40.6419 133.318Z" fill="white"/>
<defs>
<linearGradient id="paint0_linear_3631_10051" x1="99.7547" y1="95.8487" x2="99.7547" y2="202.06" gradientUnits="userSpaceOnUse">
<stop stop-color="#F37022" stop-opacity="0.5"/>
<stop offset="1" stop-color="#FCAF17" stop-opacity="0"/>
</linearGradient>
<linearGradient id="paint1_linear_3631_10051" x1="170.981" y1="121.754" x2="170.981" y2="202.06" gradientUnits="userSpaceOnUse">
<stop stop-color="#F37022" stop-opacity="0.5"/>
<stop offset="1" stop-color="#FCAF17" stop-opacity="0"/>
</linearGradient>
<linearGradient id="paint2_linear_3631_10051" x1="36.0675" y1="201.978" x2="36.0675" y2="0.000137329" gradientUnits="userSpaceOnUse">
<stop stop-color="#FCAF17" stop-opacity="0"/>
<stop offset="1" stop-color="#F37022" stop-opacity="0.5"/>
</linearGradient>
</defs>
</svg>
