<svg xmlns="http://www.w3.org/2000/svg" width="17" height="17" viewBox="0 0 17 17" fill="none"><path d="M6.69341 12.181C6.5661 12.0537 6.50244 11.8916 6.50244 11.6949C6.50244 11.4981 6.5661 11.3361 6.69341 11.2088L9.40175 8.50043L6.69341 5.7921C6.5661 5.66479 6.50244 5.50275 6.50244 5.30599C6.50244 5.10923 6.5661 4.94719 6.69341 4.81988C6.82073 4.69256 6.98277 4.62891 7.17952 4.62891C7.37628 4.62891 7.53832 4.69256 7.66564 4.81988L10.8601 8.01432C10.9295 8.08377 10.9788 8.159 11.008 8.24002C11.0372 8.32104 11.0515 8.40784 11.0511 8.50043C11.0511 8.59303 11.0365 8.67983 11.0073 8.76085C10.9781 8.84187 10.9291 8.9171 10.8601 8.98655L7.66564 12.181C7.53832 12.3083 7.37628 12.372 7.17952 12.372C6.98277 12.372 6.82073 12.3083 6.69341 12.181Z" fill="white"></path></svg>